<?xml version="1.0" encoding="utf-8"?>
<!-- Generator: Adobe Illustrator 16.0.0, SVG Export Plug-In . SVG Version: 6.00 Build 0)  -->
<!DOCTYPE svg PUBLIC "-//W3C//DTD SVG 1.1//EN" "http://www.w3.org/Graphics/SVG/1.1/DTD/svg11.dtd">
<svg version="1.1" id="Layer_1" xmlns="http://www.w3.org/2000/svg" xmlns:xlink="http://www.w3.org/1999/xlink" x="0px" y="0px"
	 width="656.517px" height="583.243px" viewBox="0 0 656.517 583.243" enable-background="new 0 0 656.517 583.243"
	 xml:space="preserve">
<g>
	<path fill="none" d="M125.76,150.942c-0.396,1.145-0.679,2.318-0.542,3.591h0C125.082,153.26,125.364,152.086,125.76,150.942z"/>
	<path fill="none" d="M136.035,350.116c0.031,0.053-0.251,0.285-0.389,0.434c-0.179,0.252-0.359,0.502-0.538,0.754
		c0.179-0.252,0.358-0.502,0.538-0.753C135.784,350.401,136.066,350.169,136.035,350.116z"/>
	<path fill="none" d="M125.07,154.793c0.042-0.051,0.059-0.121,0.082-0.187c0,0,0,0,0,0
		C125.129,154.673,125.112,154.743,125.07,154.793z"/>
	<path fill="none" d="M266.215,320.237c11.598-13.15,23.182-26.313,34.77-39.466c0,0-0.001,0-0.001,0
		C289.395,293.927,277.812,307.088,266.215,320.237z"/>
	<path fill="none" d="M457.214,103.906c0.995,0.186,1.66,0.857,2.345,1.502c-0.685-0.646-1.35-1.316-2.342-1.504
		c-0.735-1.362-1.926-2.254-3.113-3.138C455.291,101.65,456.48,102.542,457.214,103.906z"/>
	<path fill="none" d="M125.152,154.606C125.152,154.606,125.152,154.606,125.152,154.606c-0.171-0.026-0.27,0.027-0.25,0.199
		C124.882,154.634,124.98,154.581,125.152,154.606z"/>
	<path fill="none" d="M585.411,73.671c11.344,0.012,20.737-9.429,20.696-20.803c-0.041-11.49-9.275-20.605-20.824-20.555
		c-11.491,0.05-20.605,9.301-20.534,20.843C564.818,64.349,574.195,73.659,585.411,73.671z"/>
	<path fill="none" d="M70.376,73.671c11.237-0.091,20.525-9.413,20.55-20.626c0.026-11.525-9.131-20.72-20.647-20.731
		c-11.527-0.012-20.712,9.153-20.711,20.667C49.568,64.332,59.053,73.763,70.376,73.671z"/>
	<path fill="none" d="M145.892,154.554c0.007,0.018,0.017,0.034,0.023,0.053h0C145.909,154.588,145.899,154.572,145.892,154.554
		c-0.009-0.004-0.019-0.01-0.028-0.014v0C145.873,154.545,145.882,154.55,145.892,154.554z"/>
	<path fill="none" d="M133.602,148.854c-1.832,1.372-3.601,2.857-5.527,4.105C130.002,151.711,131.771,150.226,133.602,148.854z"/>
	<path fill="none" d="M514.035,154.806c-0.021-0.172,0.078-0.225,0.25-0.199v0C514.113,154.581,514.015,154.634,514.035,154.806z"/>
	<path fill="#FFFF01" d="M652.938,329.254c-7.163-7.022-12.58-15.443-18.674-23.306c-4.733-6.108-8.688-12.82-13.008-19.251
		c-3.181-4.738-6.388-9.458-9.589-14.182c-0.36-0.532-0.726-1.155-1.488-1.04c-0.843,0.127-0.703,0.907-0.905,1.499
		c-0.38,1.114-0.831,2.217-1.379,3.258c-3.34,6.345-6.304,12.846-8.746,19.602c-1.197,3.313-2.815,6.481-4.331,9.672
		c-1.608,3.385-3.752,6.582-4.881,10.111c-1.521,4.754-3.716,9.16-5.885,13.586c-1.466,2.99-2.605,6.103-3.956,9.13
		c-0.98,2.198-1.484,4.45-0.997,6.814c1.187,0.515,1.914-0.238,2.731-0.722c3.984-2.355,7.962-4.722,11.969-7.038
		c1.804-1.043,3.661-2.002,5.98-2.549c0,2.135,0.12,3.862-0.021,5.568c-0.796,9.662-2.493,19.179-4.472,28.666
		c-1.668,7.996-4.703,15.482-7.935,22.9c-1.813,4.159-4.6,7.749-7.489,11.259c-4.913,5.966-11.208,9.722-18.567,11.634
		c-9.986,2.595-19.566,0.828-28.787-3.388c-2.527-1.156-2.382-1.187-4.298,1.042c-4.532,5.274-9.034,10.586-13.792,15.655
		c-5.066,5.398-10.217,10.739-15.986,15.418c-1.539,1.248-1.971,2.539-1.096,4.478c1.508,3.34,2.362,6.923,3.25,10.472
		c2.306,9.223,2.028,18.307-1.412,27.264c-1.063,2.767-3.193,4.812-4.468,7.37c-1.381,2.771-3.414,4.921-5.551,7.034
		c-2.214,2.188-4.755,3.953-7.222,5.839c-4.153,3.173-8.663,5.568-13.339,7.745c-11.194,5.211-22.978,8.55-35.08,10.8
		c-1.957,0.363-3.955,1.06-6.148,0.458c0.269-2.319,0.903-4.432,1.73-6.518c0.228-0.574,0.455-1.148,0.682-1.723
		c1.586-4.022,3.104-8.069,3.947-12.337l-0.001-0.001c-0.174-0.195-0.348-0.39-0.521-0.584c-2.49,0.483-4.656,2.034-7.288,2.139
		c-0.655,0.025-1.345,0.646-1.914,1.119c-3.923,3.258-8.578,5.225-13.083,7.448c-4.307,2.125-8.635,4.209-12.991,6.23
		c-1.376,0.638-2.451,1.682-3.751,2.438c-3.792,2.205-7.877,3.879-11.457,6.484c-2.073,1.51-4.516,2.423-7.024,3.079
		c-1.456,0.381-2.895,0.827-4.063,1.86c-4.69,4.147-3.204,8.631,1.633,10.93c3.903,1.854,7.521,4.17,10.969,6.688
		c2.949,2.152,5.688,4.568,9.024,6.153c1.641,0.778,3.356,1.502,4.802,2.569c5.689,4.204,11.559,8.147,17.498,11.974
		c2.639,1.699,5.225,3.366,7.4,5.647c1.796,1.882,4.015,3.052,6.645,2.449c2.517-0.577,4.577,0.021,6.437,1.63
		c0.558,0.483,1.195,0.678,1.744,0.355c0.738-0.434,0.275-1.154,0.042-1.707c-1.514-3.566-3.071-7.114-4.587-10.681
		c-1.304-3.068-2.654-6.121-3.821-9.242c-0.726-1.94-0.309-2.498,1.677-2.893c2.002-0.398,4.021-0.591,6.067-0.708
		c3.74-0.215,7.465-0.697,11.195-1.075c4.694-0.476,9.379-1.108,14.085-1.399c6.052-0.375,11.936-1.46,17.589-3.614
		c3.517-1.341,7.039-2.627,10.676-3.605c0.814-0.22,1.75-0.511,2.303-1.084c1.801-1.869,4.166-2.552,6.443-3.498
		c3.278-1.362,6.839-1.946,10.028-3.434c4.651-2.167,8.911-5.112,13.341-7.689c6.089-3.543,12.002-7.445,18.074-11.055
		c3.688-2.191,7.359-4.389,11.688-5.288c4.498-0.935,8.875-2.427,12.949-4.565c3.649-1.917,7.5-3.14,11.45-4.167
		c1.036-0.27,2.104-0.568,3.029-1.083c2.866-1.592,5.979-2.454,9.142-3.075c2.102-0.412,3.074-1.447,3.445-3.549
		c1.184-6.682,2.975-13.227,4.708-19.783c5.351-20.246,12.387-39.879,21.571-58.703c10.075-20.652,15.011-42.5,15.895-65.38
		c0.225-5.813,0.328-11.622,0.413-17.436c0.039-2.7,0.823-3.4,3.429-3.612c2.622-0.212,4.809,0.68,6.902,2.176
		c2.77,1.979,5.948,2.857,9.335,3.032c1.198,0.063,1.726-0.29,1.658-1.65C656.341,334.865,655.418,331.685,652.938,329.254z"/>
	<path fill="#FFFF01" d="M285.254,533.658c-3.993-2.256-7.997-4.476-12.085-6.569c-4.935-2.528-9.583-5.602-14.659-7.96
		c-4.828-2.242-9.153-5.526-14.378-7.008c-1.237-0.352-2.344-1.108-3.204-2.108c-1.784-2.075-4.208-3.021-6.746-3.494
		c-2.25-0.419-3.955-1.55-5.549-3.029c-0.55-0.511-1.075-1.082-1.711-1.456c-0.82-0.481-1.655-0.271-2.384,0.344
		c-0.683,0.576-1.219,1.119-0.847,2.185c0.833,2.387,1.377,4.888,2.354,7.21c1.484,3.529,3.034,7.009,3.489,10.861
		c-4.453,0.778-7.788,0.644-11.527-0.74c-2.705-1.001-5.244-2.494-7.989-3.335c-6.248-1.914-12.515-3.836-18.835-5.439
		c-10.24-2.598-18.372-8.187-25.158-16.005c-6.987-8.049-10.541-17.403-10.291-28.112c0.167-7.196,2.042-14.037,4.671-20.67
		c0.624-1.575,0.537-2.564-0.786-3.591c-2.632-2.041-5.017-4.363-7.385-6.704c-8.021-7.924-15.953-15.925-22.916-24.831
		c-2.039-2.608-2.148-2.519-5.184-1.324c-4.519,1.776-9.122,3.1-13.99,3.692c-13.062,1.593-23.706-2.916-32.227-12.599
		c-6.06-6.887-9.935-15.036-12.616-23.78c-3.514-11.46-5.595-23.205-6.913-35.086c-0.357-3.214-0.909-6.492-0.51-9.916
		c2.496,0.876,4.444,1.998,6.382,3.158c1.105,0.662,2.205,1.336,3.305,2.007c3.303,2.012,6.625,3.99,10.207,5.499
		c0,0,0.001-0.001,0.001-0.001c0,0,0,0.001-0.001,0.001c0.141,0.188,0.318,0.354,0.514,0.32c0.065-0.012,0.133-0.045,0.201-0.107
		c0.267-0.242,0.085-0.531-0.113-0.766c-0.27-1.723-1.031-3.28-1.683-4.866c-2.045-4.979-4.13-9.941-6.23-14.896
		c-7.183-16.944-14.372-33.885-21.589-50.814c-0.352-0.826-0.458-1.919-1.53-2.225c-4.979,4.154-7.627,10.076-11.717,14.874
		c-3.753,4.403-6.428,9.655-10.691,13.665c-0.471,0.442-0.874,0.946-1.017,1.613c-0.38,1.78-1.669,2.933-2.801,4.243
		c-2.871,3.323-5.702,6.688-8.387,10.162c-1.697,2.196-2.742,4.848-4.714,6.895c-0.8,0.832-1.464,1.907-1.861,2.991
		c-0.759,2.071-1.945,3.8-3.438,5.384c-1.205,1.278-1.721,2.967-2.47,4.514c-0.709,1.465,0.288,2.499,1.029,3.494
		c0.737,0.989,1.573,0.044,2.292-0.229c2.012-0.765,3.978-1.646,5.973-2.454c4.263-1.727,8.353-3.921,12.879-4.951
		c0.505,1.056,0.332,2.039,0.348,2.984c0.189,11.2,0.325,22.4,0.53,33.6c0.089,4.829,0.385,9.658,1.27,14.412
		c0.764,4.108,1.913,8.083,3.504,12.012c2.036,5.028,3.258,10.387,4.821,15.605c0.793,2.652,2.156,5.112,2.394,7.964
		c0.093,1.114,0.639,2.381,1.387,3.208c1.295,1.43,1.837,3.175,2.44,4.858c0.925,2.581,2.446,4.758,4.018,6.928
		c0.5,0.69,1.038,1.313,1.415,2.123c4.214,9.065,7.184,18.608,10.699,27.938c2.181,5.789,3.077,11.969,5.116,17.869
		c2.088,6.041,4.071,12.239,5.036,18.637c0.281,1.861,1.154,2.72,3.002,3.172c7.947,1.943,15.773,4.329,23.564,6.821
		c2.229,0.712,4.375,1.687,6.545,2.574c4.537,1.854,9.083,3.685,13.59,5.61c4.614,1.973,9.227,3.945,13.418,6.782
		c1.6,1.083,2.938,2.46,4.64,3.458c2.874,1.687,5.884,3.113,8.739,4.777c3.628,2.113,7.292,4.1,11.058,5.954
		c23.267,11.456,47.904,17.194,73.768,17.921c2.011,0.056,4.021,0.152,6.241,0.238c-0.936,3.168-2.112,5.919-3.269,8.686
		c-0.57,1.363-1.165,2.716-1.766,4.067c-1.801,4.053-3.646,8.087-4.985,12.33c0,0,0,0.001,0.001,0.001
		c-0.209,0.216-0.375,0.464-0.289,0.702c0.029,0.079,0.086,0.157,0.178,0.233c0.108,0.088,0.468-0.132,0.712-0.211
		c4.168-1.791,7.917-4.311,11.761-6.679c18.045-11.122,36.113-22.207,54.188-33.28c1.475-0.902,3.036-1.629,1.771-3.76
		C289.33,536.262,287.42,534.881,285.254,533.658z"/>
	<path fill="#FFFF01" d="M78.12,94.896c4.514-0.679,8.653-2.537,12.817-4.292l0.075-0.096c0,0-0.057,0.082-0.055,0.082
		c0,0,0,0-0.001,0.001c-6.889,9.986-13.311,20.241-18.854,31.001c-1.848,3.586-3.598,7.229-5.235,10.937
		c-0.433,0.98-1.041,1.959-1.163,2.987c-0.528,4.458,2.11,9.184,6.459,10.919c3.555,1.418,6.702,3.253,9.466,5.898
		c2.582,2.47,5.572,2.504,8.946,1.473c1.94-0.593,2.678-1.621,3.363-3.28c1.354-3.279,2.873-6.495,4.423-9.688
		c7.977-16.423,17.605-31.818,28.877-46.181c10.06-12.817,21.251-24.559,33.556-35.244c5.122-4.447,10.387-8.708,15.827-12.76
		c2.394-1.783,2.355-1.834,0.578-4.281c-0.126-0.174-0.241-0.357-0.375-0.525c-4.768-5.969-9.522-11.949-14.312-17.9
		c-2.704-3.361-2.729-3.341-6.125-0.471c-0.165,0.139-0.336,0.269-0.507,0.4c-13.688,10.531-26.232,22.322-38.251,34.695
		c-1.764,1.816-3.64,3.524-5.589,5.403c0.68-5.205,1.317-10.082,0.715-15.06C110.684,31.754,101.6,19.679,85.7,13.374
		c-15.462-6.132-30.112-3.473-42.948,7.055c-10.113,8.295-15.318,19.296-15.423,32.454c-0.072,9.071,2.412,17.457,7.963,24.74
		C46.13,91.838,60.459,97.553,78.12,94.896z M70.279,32.313c11.516,0.012,20.673,9.207,20.647,20.731
		c-0.025,11.213-9.313,20.535-20.55,20.626c-11.323,0.092-20.808-9.339-20.808-20.69C49.567,41.467,58.752,32.302,70.279,32.313z"/>
	<path fill="#FFFF01" d="M477.799,44.457c0.171,0.131,0.35,0.253,0.522,0.381c8.214,6.09,16.19,12.451,23.705,19.414
		c10.444,9.677,20.102,20.063,28.882,31.251c12.749,16.245,23.115,33.942,31.65,52.728c1.248,2.748,1.647,3.087,4.384,1.843
		c3.802-1.73,7.868-2.786,11.487-5.042c2.199-1.371,4.204-2.95,6.311-4.414c2.166-1.505,3.642-5.523,2.14-7.574
		c-1.756-2.397-2.512-5.223-4.077-7.639c-1.192-1.838-2.062-3.783-2.578-5.874c-0.626-2.536-1.633-4.871-3.155-6.986
		c-1.067-1.484-2.198-2.947-2.589-4.779c-0.626-2.939-2.056-5.327-4.268-7.402c-1.465-1.375-2.741-3.077-2.976-5.226
		c-0.22-2.021,0.71-2.845,2.646-2.377c0.937,0.227,1.836,0.61,2.758,0.905c8.58,2.749,17.185,2.584,25.742-0.003
		c8.278-2.502,15.014-7.429,20.619-13.892c5.297-6.107,8.184-13.526,9.462-21.291c1.201-7.294-0.208-14.68-3.133-21.484
		c-4.963-11.542-13.285-19.818-25.271-24.092c-10.607-3.783-21.178-3.505-31.486,0.968c-10.228,4.438-17.779,11.75-22.271,22.056
		c-1.688,3.872-2.688,7.914-3.22,12.118c-0.671,5.293-0.168,10.511,0.678,16.542c-1.43-1.366-2.38-2.207-3.252-3.121
		c-9.072-9.512-18.447-18.693-28.892-26.721c-5.548-4.264-11.116-8.503-17.153-12.067c-2.206-1.304-2.386-1.253-4.006,0.722
		c-2.253,2.745-4.453,5.533-6.64,8.331c-2.252,2.882-4.477,5.786-6.683,8.703C475.489,42.611,475.525,42.715,477.799,44.457z
		 M585.283,32.313c11.549-0.05,20.783,9.064,20.824,20.555c0.041,11.374-9.353,20.814-20.696,20.803
		c-11.216-0.012-20.593-9.322-20.662-20.514C564.678,41.615,573.792,32.364,585.283,32.313z"/>
	<path fill="#9E9E94" d="M581.443,252.794C581.932,111.97,466.501-0.715,328.989,0.006C190.491-0.983,75.865,112.618,76.015,251.952
		c0.075,69.932,24.625,130.117,73.959,179.545c49.191,49.285,109.574,73.575,178.891,73.69
		c69.284,0.115,129.243-24.89,178.244-73.901C556.173,382.21,581.202,322.359,581.443,252.794z M326.35,501.488
		C188.691,500.29,79.653,388.365,79.864,252.928C79.715,116.122,189.112,3.716,328.572,3.617
		c140.057-0.1,249.49,113.161,249.178,249.566C577.438,389.811,466.714,502.711,326.35,501.488z"/>
	<path fill="#FFFF01" d="M433.916,503.798c-0.226-0.255-0.492-0.098-0.711,0.094c0.174,0.194,0.349,0.39,0.522,0.584
		C433.971,504.298,434.14,504.052,433.916,503.798z"/>
	<polygon fill="#FFFFFE" points="90.937,90.604 90.957,90.589 91.012,90.507 	"/>
	<path fill="#FFFF01" d="M328.572,3.617C189.112,3.716,79.715,116.122,79.864,252.928C79.653,388.365,188.691,500.29,326.35,501.488
		c140.364,1.223,251.087-111.678,251.4-248.306C578.062,116.777,468.629,3.517,328.572,3.617z M563.937,221.597
		c1.082,3.7,1.305,7.532,1.778,11.826c-1.254-0.939-1.104-2.617-2.47-2.687c-1.067-0.054-2.153-0.069-3.212,0.059
		c-5.764,0.691-11.521,1.432-17.344,2.405c3.674,1.502,7.613,2.008,11.451,2.879c3.934,0.893,7.878,1.742,11.818,2.609
		c0.046,0.245,0.092,0.49,0.138,0.735c-7.001,3.623-14.002,7.246-21.003,10.869c0.035,0.192,0.071,0.384,0.106,0.576
		c2.327-0.244,4.657-0.458,6.979-0.74c3.201-0.389,6.396-0.834,9.597-1.243c2.291-0.292,4.558-0.605,4.998-3.696
		c1.183,2.371,1.17,4.712,1.308,7.366c-2.382-2.555-2.402-2.674-5.512-2.313c-5.98,0.695-11.938,1.59-17.918,2.287
		c-2.084,0.243-3.522,0.909-3.388,3.47c-0.261-0.088-0.522-0.176-0.783-0.264c-0.32-2.519-0.608-5.043-0.974-7.556
		c-0.203-1.401,0.72-1.862,1.711-2.364c3.937-1.994,7.872-3.992,11.787-6.028c0.837-0.435,1.848-0.634,2.487-1.635
		c-1.722-1.041-3.698-1.004-5.527-1.428c-3.351-0.776-6.732-1.431-10.118-2.042c-1.453-0.263-2.295-0.773-2.391-2.441
		c-0.132-2.305-0.547-4.594-0.9-7.35c2.336,2.805,2.328,2.749,5.693,2.307c5.864-0.771,11.739-1.469,17.61-2.193
		C562.688,224.656,562.948,224.433,563.937,221.597z M554.391,174.847c1.2,3.758,2.205,6.959,2.736,10.603
		c-2.293-2.069-2.295-2.073-4.519-0.642c-0.634,0.408-1.232,0.871-1.879,1.257c-0.886,0.529-1.065,1.286-0.819,2.213
		c0.332,1.248,0.738,2.48,0.988,3.743c0.474,2.39,0.341,2.653,3.42,2.799c3.032,0.143,3.24-0.029,4.257-3.331
		c1.165,2.242,1.579,4.499,2.09,7.319c-3.69-2.775-7.648-2.386-11.402-2.847c-5.87-0.722-11.761-1.274-17.642-1.909
		c-0.301-0.032-0.591-0.164-1.055-0.298c0.447-1.284,1.605-1.744,2.506-2.377c5.283-3.716,10.603-7.381,15.915-11.055
		C550.987,178.939,553.067,177.651,554.391,174.847z M507.829,134.377c2.639,0,5.277,0.026,7.916-0.006
		c5.363-0.065,4.257,0.656,5.969-4.207c0.905-2.572,1.475-5.282,2.952-8.052c1.479,2.77,2.047,5.48,2.952,8.052
		c1.712,4.863,0.605,4.142,5.97,4.207c2.638,0.032,5.276,0.006,8.105,0.619c-2.62,1.962-5.239,3.924-7.86,5.885
		c-2.13,1.593-2.155,1.6-1.371,4.185c0.685,2.258,1.428,4.499,2.15,6.745c0.287,0.892,0.707,1.764,0.384,2.735
		c0.01,0.004,0.019,0.009,0.028,0.014c0.007,0.018,0.017,0.034,0.023,0.053c0.171-0.026,0.27,0.027,0.249,0.199
		c0,0.004-0.143,0.019-0.168-0.012c-0.041-0.051-0.059-0.121-0.081-0.187c-0.027,0.004-0.038-0.009-0.07,0
		c0.008-0.022,0.011-0.044,0.019-0.066c-3.145-1.382-5.698-3.664-8.398-5.688c-1.479-1.109-2.384-1.108-3.862,0
		c-2.696,2.02-5.247,4.297-8.384,5.68c0.002,0.024,0,0.048,0.003,0.073v0v0v0c-0.031-0.008-0.043,0.004-0.069,0
		c-0.023,0.066-0.041,0.136-0.082,0.187c-0.025,0.031-0.168,0.016-0.168,0.012c-0.021-0.172,0.078-0.225,0.25-0.2
		c0.006-0.018,0.016-0.034,0.022-0.052c0.015-0.006,0.028-0.015,0.044-0.021c-0.032-0.304-0.041-0.603-0.03-0.896
		c0.076-2.057,1.118-3.883,1.71-5.805c1.658-5.38,1.71-5.358-2.852-8.696c-1.862-1.362-3.705-2.75-5.558-4.127
		C507.691,134.798,507.76,134.588,507.829,134.377z M165.348,71.428c14.285-12.746,29.898-23.592,46.754-32.66
		c20.994-11.294,43.178-19.321,66.525-24.096c10.858-2.221,21.827-3.618,32.898-4.393c9.15-0.64,18.294-0.727,27.43-0.35
		c13.985,0.578,27.831,2.399,41.521,5.404c35.909,7.881,68.355,23.148,97.479,45.534c4.953,3.807,9.727,7.835,14.357,12.028
		c2.103,1.904,1.965,1.86,0.459,4.247c-4.424,7.009-8.75,14.08-13.112,21.128c-0.566,0.915-1.126,1.835-1.688,2.753
		c-0.764,1.247-1.477,1.186-2.519,0.167c-5.55-5.425-11.464-10.434-17.61-15.169c-21.659-16.69-45.65-28.75-71.959-36.185
		c-13.387-3.783-27.017-6.179-40.898-7.255c-12.811-0.993-25.622-1.025-38.373,0.317c-41.507,4.369-78.712,19.463-111.45,45.416
		c-5.149,4.082-10.104,8.397-14.783,13.018c-0.298,0.294-0.661,0.524-0.98,0.774c-1.263-0.517-1.85-1.537-2.41-2.568
		c-4.21-7.758-8.429-15.512-12.61-23.285C162.947,73.584,162.977,73.543,165.348,71.428z M118.696,134.377
		c2.639,0,5.278,0.026,7.916-0.006c5.364-0.065,4.257,0.656,5.969-4.207c0.906-2.572,1.474-5.282,2.953-8.052
		c1.478,2.77,2.046,5.48,2.952,8.052c1.712,4.863,0.604,4.142,5.969,4.207c2.638,0.032,5.277,0.006,8.106,0.62
		c-2.62,1.961-5.239,3.924-7.86,5.885c-2.131,1.593-2.155,1.6-1.371,4.185c0.685,2.258,1.428,4.499,2.15,6.745
		c0.107,0.334,0.234,0.666,0.333,1.001c0.099,0.335,0.17,0.674,0.167,1.022c-0.001,0.232-0.036,0.468-0.117,0.711
		c0.01,0.004,0.019,0.01,0.029,0.014c0.007,0.018,0.017,0.034,0.023,0.053c0.013-0.002,0.017,0.005,0.029,0.004
		c0.149-0.013,0.239,0.036,0.221,0.194c0,0.004-0.143,0.02-0.168-0.012c-0.042-0.051-0.059-0.121-0.082-0.187
		c-0.027,0.004-0.038-0.009-0.07,0c0.008-0.022,0.011-0.044,0.019-0.066c-1.965-0.864-3.7-2.079-5.384-3.363
		c-1.01-0.771-2.002-1.565-3.015-2.324c-1.479-1.109-2.383-1.108-3.862,0c-1.832,1.372-3.6,2.857-5.527,4.105
		c-0.909,0.589-1.851,1.131-2.856,1.574c0.003,0.025,0,0.048,0.003,0.073v0l0,0c-0.031-0.008-0.042,0.004-0.069,0
		c-0.023,0.066-0.041,0.136-0.082,0.187c-0.025,0.031-0.167,0.016-0.168,0.012c-0.02-0.172,0.078-0.226,0.25-0.2
		c0.006-0.018,0.016-0.034,0.023-0.052c0.015-0.006,0.028-0.014,0.043-0.021c-0.136-1.273,0.146-2.446,0.542-3.591
		c0.118-0.339,0.244-0.677,0.374-1.013c0.269-0.697,0.546-1.391,0.764-2.098c1.658-5.38,1.71-5.358-2.851-8.696
		c-1.862-1.362-3.706-2.75-5.557-4.127C118.559,134.798,118.627,134.588,118.696,134.377z M97.983,189.646
		c0.146-2.369,2.615-10.912,3.981-13.381c0.694,3.116,0.689,3.132,4.113,4.177c5.655,1.725,11.328,3.394,16.972,5.154
		c2.047,0.638,3.832,0.85,4.605-1.755c1.052,0.662,0.439,1.261,0.289,1.774c-0.849,2.888-1.69,5.779-2.624,8.64
		c-2.126,6.51-6.407,9.387-13.203,8.75c-3.471-0.326-6.727-1.407-9.542-3.58C99.368,196.948,97.728,193.765,97.983,189.646z
		 M90.32,234.254c0.776,2.802,2.73,3.208,5.109,3.08c2.038-0.11,4.09-0.006,6.133,0.06c1.223,0.039,1.65-0.502,1.781-1.695
		c0.672-6.104,0.669-6.137-5.579-6.282c-0.968-0.022-1.937-0.058-2.905-0.053c-2.813,0.016-2.813,0.023-4.492,2.523
		c0-3.817,0-7.399,0-10.982c1.743,3.389,4.892,2.699,7.721,2.761c5.058,0.111,10.117,0.158,15.176,0.2
		c3.046,0.025,3.046-0.001,4.729-2.307c0,3.65,0,7.234,0,10.818c-0.236,0.128-0.473,0.256-0.709,0.384
		c-0.202-2.855-2.029-3.172-4.128-3.147c-1.937,0.022-3.876-0.004-5.812-0.07c-1.211-0.041-1.774,0.459-1.818,1.678
		c-0.272,7.479-1.465,6.048,5.306,6.371c0.537,0.025,1.083-0.002,1.61,0.088c2.361,0.405,4.299,0.049,4.917-2.958
		c0.901,2.778,0.773,9.246-0.372,12.385c0.001-3.241-1.775-3.467-3.852-3.602c-6.021-0.39-12.047-0.332-18.071-0.436
		c-3.236-0.056-3.237-0.019-5.297,2.86C89.773,241.744,89.728,238.1,90.32,234.254z M93.84,293.417
		c-0.942-2.141-1.613-7.967-1.333-10.889c0.932,0.513,0.787,2.256,2.217,2.017c1.833-0.307,3.439-1.218,4.939-2.254
		c0.301-0.208,0.304-1.007,0.263-1.52c-0.101-1.285-0.267-2.567-0.479-3.838c-0.165-0.986,0.351-2.282-1.036-2.783
		c-1.525-0.551-3.098-1.047-4.724-0.522c-1.177,0.38-0.956,1.825-1.837,2.736c-0.755-2.347-0.944-4.599-0.877-6.975
		c7.355,4.084,15.616,4.933,23.399,7.32c1.813,0.556,3.715,0.836,6.117,1.993c-4.278,2.088-7.937,3.88-11.601,5.663
		c-3.677,1.789-7.363,3.557-11.034,5.357C96.214,290.525,94.565,291.338,93.84,293.417z M112.636,329.12
		c-1.821,1.976-3.567,4.02-5.4,5.982c-0.95,1.018-1.486,2.267-2.141,3.97c-1.318-2.143-1.577-4.163-2.282-6
		c-0.382-0.996,0.227-1.612,0.815-2.261c1.733-1.91,3.458-3.827,5.175-5.752c1.001-1.122,1.987-2.26,2.965-3.402
		c0.286-0.334,0.498-0.748,0.276-1.176c-0.225-0.435-0.687-0.505-1.107-0.373c-2.662,0.836-5.318,1.689-7.97,2.553
		c-1.66,0.54-1.673,2.03-2.248,3.493c-1.127-3.591-2.254-7.182-3.38-10.772c1.705,2.313,3.625,2.016,5.874,1.267
		c5.602-1.865,11.251-3.588,16.901-5.301c2.015-0.611,3.697-1.367,3.515-4.031c2.022,4.843,3.744,9.568,4.632,14.518
		c0.523,2.912-0.759,5.318-3.285,6.833c-2.773,1.665-5.691,1.841-8.53,0.061C114.293,327.378,114.29,327.326,112.636,329.12z
		 M130.914,384.324c-2.132-2.956-4.324-5.873-5.784-9.271c-0.128-0.132-0.385-0.358-0.368-0.382
		c0.039-0.053,0.075-0.094,0.109-0.124c0.043-0.04,0.082-0.059,0.118-0.069c0.165-0.048,0.269,0.162,0.375,0.354
		c0-0.001,0.001-0.001,0.002-0.002c0.925,0.391,1.788,1.078,2.839,0.719c0.15-0.051,0.304-0.124,0.463-0.222
		c5.462-3.372,10.938-6.724,16.409-10.083c-0.092-0.256-0.184-0.512-0.275-0.767c-7.543,1.64-15.087,3.279-22.743,4.943
		c-0.165-1.73,0.882-2.47,1.563-3.352c0.953-1.234,1.922-2.455,2.898-3.672c2.926-3.649,5.9-7.261,8.59-11.095
		c0.179-0.252,0.358-0.502,0.538-0.754c0.138-0.148,0.419-0.381,0.389-0.434c-0.064-0.112-0.127-0.18-0.189-0.214
		c-0.187-0.104-0.363,0.092-0.53,0.283c0,0.001,0.001,0.001,0.002,0.002c-0.25,0.168-0.501,0.335-0.752,0.501
		c-5.106,2.541-9.736,5.874-14.608,8.805c-1.67,1.004-1.897,2.602-1.569,4.469c-1.827-1.747-2.802-3.884-4.064-5.81
		c0.801-0.933,1.172,0.009,1.609,0.252c1.065,0.594,2.055,0.504,3.042-0.109c5.75-3.573,11.479-7.181,17.257-10.708
		c1.621-0.989,1.565-2.394,1.156-4.44c2.432,2.272,3.459,4.886,4.979,7.138c0.637,0.944-0.254,1.595-0.761,2.237
		c-2.327,2.956-4.696,5.877-7.018,8.836c-0.23,0.294-0.473,0.581-0.714,0.868c-0.726,0.86-1.45,1.724-1.867,2.801
		c-0.098,0.178-0.328,0.438-0.277,0.515c0.236,0.359,0.516,0.217,0.76-0.041c4.794-0.649,9.419-2.077,14.142-3.06
		c2.917-0.606,2.916-0.664,4.408,1.74c1.12,1.805,2.213,3.625,3.625,5.94c-1.662-0.334-2.165-1.858-3.424-1.589
		c-1.192,0.255-2.129,0.987-3.129,1.606c-4.838,2.995-9.677,5.99-14.512,8.989C130.656,380.952,130.653,380.968,130.914,384.324z
		 M171.775,397.286c-3.171,5.612-6.408,11.188-9.548,16.818c-1.281,2.298-2.945,4.458-2.876,7.732
		c-2.538-2.221-4.184-4.527-6.241-7.07c3.362-0.212,3.719-2.895,4.965-4.738c0.499-0.737,0.027-1.444-0.469-2.043
		c-0.754-0.91-1.484-1.847-2.305-2.693c-0.716-0.739-1.107-2.092-2.374-1.937c-1.597,0.196-3.075,0.82-4.356,1.911
		c-1.175,1.001-0.169,2.184-0.333,3.53c-1.886-1.677-3.229-3.429-5.164-5.755c3.991,1.129,6.855-0.344,9.801-1.403
		c5.659-2.034,11.313-4.086,16.969-6.127c0.891-0.322,1.744-0.786,2.942-0.781C172.895,395.787,172.21,396.517,171.775,397.286z
		 M128.074,252.577c0.136-109.716,88.089-199.58,198.684-200.576c113.24-1.02,200.95,90.003,202.568,197.288
		c1.676,111.073-86.804,201.479-196.045,203.8C219.871,455.499,128.217,364.481,128.074,252.577z M223.038,441.349
		c-2.291,3.771-4.643,7.508-7.031,11.218c-0.871,1.353-1.801,2.705-2.911,3.856c-2.049,2.123-5.15,2.533-7.746,1.232
		c-2.747-1.377-4.221-3.98-3.9-6.827c0.125-1.113,0.543-2.088,1.309-2.885c1.202-1.253,2.665-1.378,3.707-0.371
		c1.023,0.988,1.061,2.566-0.019,3.781c-0.491,0.552-1.185,0.92-1.758,1.405c-0.688,0.582-0.776,1.271-0.188,1.974
		c0.585,0.697,1.271,1.208,2.231,0.686c0.88-0.478,1.474-1.265,1.989-2.082c3.389-5.371,6.742-10.765,10.135-16.134
		c0.727-1.149,0.952-2.351,0.375-4.019c1.998,0.407,3.042,1.403,4.231,2.097c1.656,0.963,3.231,2.066,4.877,3.39
		C225.43,437.585,224.237,439.375,223.038,441.349z M245.676,477.313c3.004-0.512,3.021-0.511,3.11-3.602
		c0.1-3.475,0.504-3.378-2.992-4.623c-0.606-0.216-1.187-0.503-1.792-0.722c-2.429-0.877-2.67-0.818-4.182,0.92
		c-2.011,2.313-1.995,3.06,0.11,5.356c-1.994,0.089-3.268-0.331-6.842-2.327c3.812-1.396,5.901-4.518,8.346-7.232
		c3.881-4.31,7.685-8.69,11.526-13.036c0.42-0.475,0.808-1.007,1.774-1.259c0,4.749,0.026,9.229-0.007,13.708
		c-0.03,4.08-0.104,8.161-0.199,12.239c-0.034,1.444,0.552,2.681,1.471,4.384C252.044,480.29,248.935,478.596,245.676,477.313z
		 M299.101,484.123c-0.572,1.694-0.193,3.996-1.817,4.97c-1.462,0.876-3.336-0.24-5.012-0.479c-4.872-0.695-9.712-1.604-14.565-2.43
		c-0.047-0.225-0.094-0.45-0.142-0.676c2.599,0.285,3.316-1.166,3.634-3.236c0.946-6.153,2.053-12.283,2.99-18.438
		c0.45-2.958,0.342-2.975-2.365-5.043c4.139,0.226,7.921,1.216,12.432,1.792c-1.437,1.14-2.904,0.464-3.603,1.58
		c-0.666,1.063-0.664,2.257-0.86,3.41c-0.988,5.82-1.977,11.642-2.896,17.474c-0.368,2.337-0.003,2.737,2.36,3.258
		c4.749,1.046,6.623,0.197,8.93-4.055c0.401-0.738,0.783-1.486,1.541-2.929C300.086,481.498,299.536,482.832,299.101,484.123z
		 M334.898,490.753c0.866-1.187,2.586-1.668,1.84-3.341c-0.567-1.272-0.889-2.673-1.583-3.864c-0.611-1.05-7.574-0.812-8.185,0.26
		c-0.744,1.303-1.293,2.762-1.223,4.288c0.073,1.586,1.438,1.952,2.841,2.164c-0.057,0.253-0.114,0.508-0.171,0.762
		c-2.289,0-4.577,0-7.227,0c3.369-3.027,3.928-7.242,5.288-11.085c1.684-4.761,3.214-9.576,4.817-14.364
		c0.297-0.887,0.403-1.869,1.208-2.554c1.015,0.316,1.078,1.289,1.382,2.026c2.62,6.36,5.181,12.745,7.804,19.104
		c0.888,2.153,1.616,4.432,4.26,6.096C342.016,490.885,338.633,490.616,334.898,490.753z M400.894,468.668
		c0.52,1.523,1.08,3.032,1.641,4.542c1.062,2.859,1.153,2.933,4.402,3.63c-3.481,1.706-6.97,2.66-10.514,3.683
		c1.929-2.31,1.969-2.418,1.008-5.143c-1.999-5.668-4.022-11.326-6.022-16.993c-0.7-1.982-1.434-3.895-4.32-3.563
		c4.46-1.91,8.681-4.005,13.373-4.631c2.78-0.37,5.438,1.386,6.747,4.058c1.519,3.097,1.192,6.097-0.876,8.405
		c-1.11,1.239-2.563,1.913-4.021,2.609C400.146,466.3,400.114,466.382,400.894,468.668z M452.064,456.146
		c-0.95,0.537-1.658-0.027-2.379-0.455c-2.59-1.537-5.158-3.11-7.741-4.66c-0.83-0.498-1.673-0.976-2.52-1.446
		c-0.384-0.213-0.824-0.34-1.206-0.058c-0.564,0.418-0.331,0.986-0.087,1.443c1.214,2.277,2.403,4.571,3.728,6.785
		c0.796,1.332,0.899,1.27,4.354,1.444c-3.709,2.156-6.85,4.021-10.581,5.703c0.271-1.498,2.025-1.928,1.593-3.205
		c-0.376-1.11-0.902-2.182-1.459-3.217c-2.65-4.927-5.321-9.841-8.01-14.746c-1.66-3.028-1.68-3.018-4.867-3.072
		c0.387-1.079,1.444-1.239,2.233-1.688c3.365-1.912,6.687-3.941,10.299-5.353c5.582-2.182,10.956,1.956,10.421,7.893
		c-0.09,1.001-0.386,1.907-0.956,2.701c-0.726,1.011-0.588,1.765,0.501,2.361c3.91,2.142,7.427,5.015,12.045,6.347
		C455.697,454.371,453.817,455.154,452.064,456.146z M485.335,432.321c-0.668-1.02,0.277-1.285,0.451-1.829
		c0.219-0.685,0.187-1.339-0.423-1.73c-1.354-0.872-2.756-1.67-4.152-2.475c-0.415-0.239-0.853-0.11-1.195,0.179
		c-1.561,1.319-3.106,2.655-4.656,3.987c-0.677,0.583-0.594,1.296-0.402,2.068c0.777,3.135,1.8,3.938,5.066,3.91
		c0.008-0.013,0.018-0.024,0.025-0.037c0.007-0.004,0.017-0.007,0.024-0.011c-0.1-0.188-0.006-0.426,0.113-0.362
		c0.513,0.271,0.061,0.28-0.113,0.362c0.009,0.017,0.01,0.034,0.021,0.05c-0.026,0-0.046-0.002-0.071-0.002
		c-1.143,1.867-3.018,2.898-5.013,4.607c0.414-5.561-2.239-9.829-3.73-14.422c-1.262-3.883-2.804-7.674-4.165-11.525
		c-0.338-0.958-1.098-1.901-0.476-3.041c1.079-0.086,1.816,0.617,2.635,1.075c5.913,3.309,11.808,6.651,17.724,9.955
		c1.869,1.044,3.706,2.257,6.194,1.979C490.892,427.855,487.98,429.903,485.335,432.321z M513.031,403.385
		c-1.546,2.627-4.187,3.848-7.118,3.281c-1.204-0.231-2.236-0.778-2.978-1.772c-0.93-1.246-0.864-2.593,0.128-3.479
		c0.927-0.827,2.556-0.855,3.538,0.076c0.528,0.502,0.882,1.201,1.262,1.843c0.646,1.09,1.526,1.156,2.435,0.479
		c0.914-0.681,1.078-1.667,0.309-2.53c-0.854-0.957-1.81-1.846-2.823-2.632c-4.333-3.363-8.721-6.654-13.05-10.022
		c-1.433-1.115-2.858-1.933-4.718-1.164c-0.076,0.376-0.204,0.722-0.615,0.843c-0.052,0.016-0.201-0.104-0.211-0.173
		c-0.057-0.427,0.138-0.721,0.534-0.882c1.753-3.044,4.028-5.676,6.519-8.667c-0.412,3.558-0.428,3.577,2.245,5.656
		c3.565,2.773,7.177,5.488,10.725,8.283c1.177,0.928,2.322,1.938,3.3,3.068C514.476,397.863,514.604,400.714,513.031,403.385z
		 M538.533,366.258c-0.335-1.735,0.652-3.202-0.869-3.74c-1.607-0.568-3.275-1.04-5.011-0.909c-0.563,0.042-0.828,0.642-1.102,1.1
		c-0.552,0.923-1.082,1.859-1.618,2.792c-1.772,3.088-1.695,3.274,0.775,5.662c1.308,1.264,2.538,1.473,3.96,0.317
		c0.201-0.256,0.316-0.841,0.733-0.522c0.338,0.259,0.089,0.68-0.292,0.896c-0.541,1.518-1.319,2.89-2.396,4.483
		c-0.358,0.531-0.751,1.087-1.179,1.681c-0.119-4.038-2.365-6.21-4.287-8.57c-4.076-5.006-8.164-10.001-12.236-15.01
		c-0.394-0.485-0.708-1.034-1.069-1.568c0.759-0.792,1.507-0.393,2.169-0.272c7.505,1.364,15.001,2.774,22.507,4.128
		c1.682,0.303,3.399,0.542,5.226-0.279C542.624,359.842,540.748,362.757,538.533,366.258z M553.054,333.188
		c-0.111-2.851-2.028-3.537-4.163-4.198c-5.741-1.78-11.441-3.696-17.179-5.492c-0.941-0.295-2.169-1.144-2.932,0.051
		c-0.749,1.173-1.034,2.576-0.228,3.976c0.859,1.489,2.334,2.373,3.527,3.604c-2.154-0.019-3.991-0.895-5.907-1.456
		c-0.949-0.277-1.034-1.002-0.778-1.8c1.84-5.724,3.696-11.441,5.539-17.165c0.28-0.872,0.854-1.228,1.717-0.964
		c1.79,0.548,3.565,1.144,5.347,1.719c-0.082,0.284-0.164,0.568-0.246,0.852c-0.962,0-1.933-0.087-2.882,0.02
		c-1.465,0.165-2.611,0.866-3.296,2.259c-0.953,1.939-0.759,2.555,1.383,3.254c6.022,1.963,12.056,3.895,18.098,5.794
		c2.71,0.852,2.93,0.746,5.391-1.253C555.313,325.989,554.184,329.589,553.054,333.188z M565.865,284.607
		c-1.34-2.852-1.466-2.928-3.75-2.604c-3.934,0.557-3.934,0.557-4.494,4.442c-0.076,0.532-0.157,1.063-0.253,1.592
		c-0.487,2.684-0.489,2.683,1.963,3.938c2.704,1.384,3.043,1.303,4.964-1.192c0.464,2.214,0.373,3.012-0.897,7.265
		c-1.6-3.266-4.558-4.502-7.268-6.073c-6.043-3.5-12.073-7.019-18.509-10.762c1.521-0.896,2.872-0.955,4.142-1.197
		c6.862-1.307,13.726-2.61,20.599-3.855c1.83-0.332,3.51-0.859,5.16-2.795C567.42,277.381,566.607,280.723,565.865,284.607z"/>
	<path fill="#9E9E94" d="M333.281,453.089c109.242-2.321,197.721-92.727,196.045-203.8
		c-1.618-107.285-89.328-198.308-202.568-197.288C216.163,52.997,128.21,142.86,128.074,252.577
		C128.217,364.481,219.871,455.499,333.281,453.089z M320.122,449.204c-11.39-0.507-22.687-1.965-33.841-4.437
		c-24.132-5.349-46.462-14.908-67.026-28.596c-6.908-4.598-13.469-9.666-19.749-15.093c-0.883-0.764-1.909-1.44-2.259-2.67
		c-1.764-0.476-2.839-1.91-4.05-3.075c-27.784-26.733-46.522-58.726-55.721-96.218c-3.135-12.78-4.889-25.746-5.352-38.923
		c-1.693-48.312,12.5-91.479,42.081-129.546c16.671-21.453,37.23-38.453,61.171-51.366c20.489-11.051,42.262-18.169,65.262-21.542
		c11.736-1.721,23.57-2.479,35.416-1.919c43.735,2.064,82.828,16.575,116.972,44.125c0.187,0.151,0.377,0.298,0.569,0.443
		c0.168,0.127,0.338,0.253,0.508,0.379c1.188,0.884,2.378,1.775,3.113,3.138c0.992,0.188,1.657,0.858,2.342,1.504
		c0.098,0.092,0.195,0.184,0.295,0.274c20.242,18.283,36.292,39.684,47.703,64.483c7.322,15.912,12.362,32.521,15.333,49.815
		c2.624,15.272,3.197,30.635,2.247,46.002c-1.364,22.063-6.524,43.327-15.247,63.689c-6.822,15.926-15.511,30.754-26.217,44.368
		c-15.207,19.338-33.415,35.277-54.579,47.846c-15.934,9.463-32.862,16.518-50.799,21.147c-9.274,2.394-18.672,4.075-28.205,5.138
		C340.114,449.282,330.12,449.648,320.122,449.204z"/>
	<path fill="#9E9E94" d="M176.992,99.538c0.56,1.032,1.146,2.051,2.41,2.568c0.319-0.25,0.682-0.479,0.98-0.774
		c4.68-4.621,9.634-8.936,14.783-13.018c32.738-25.953,69.942-41.047,111.45-45.416c12.751-1.342,25.562-1.31,38.373-0.317
		c13.882,1.076,27.512,3.472,40.898,7.255c26.309,7.435,50.3,19.495,71.959,36.185c6.146,4.736,12.061,9.745,17.61,15.169
		c1.042,1.019,1.755,1.081,2.519-0.167c0.562-0.918,1.121-1.838,1.688-2.753c4.362-7.048,8.688-14.119,13.112-21.128
		c1.506-2.387,1.644-2.343-0.459-4.247c-4.631-4.192-9.404-8.221-14.357-12.028c-29.124-22.386-61.57-37.653-97.479-45.534
		c-13.69-3.005-27.536-4.827-41.521-5.404c-9.136-0.376-18.279-0.29-27.43,0.35c-11.072,0.775-22.041,2.171-32.898,4.393
		c-23.348,4.775-45.531,12.802-66.525,24.096c-16.856,9.067-32.469,19.914-46.754,32.66c-2.372,2.116-2.401,2.157-0.966,4.825
		C168.563,84.026,172.782,91.78,176.992,99.538z M483.608,88.546c-2.289,3.627-4.54,7.279-6.918,11.102
		C434.573,60.736,385.228,40.2,327.963,40.211c-57.267,0.011-106.608,20.55-148.678,59.448c-2.011-2.85-3.342-5.899-4.934-8.795
		c-2.207-4.016-2.22-4.048,1.264-7.176c12.061-10.826,25.138-20.241,39.239-28.238c19.323-10.958,39.774-19.027,61.438-23.972
		c11.124-2.539,22.362-4.269,33.761-5.125c10.765-0.81,21.537-0.892,32.274-0.308c19.082,1.037,37.765,4.56,55.978,10.432
		c20.311,6.549,39.343,15.759,57.113,27.563c9.701,6.444,18.741,13.745,27.443,21.474C483.852,86.394,484.439,87.229,483.608,88.546
		z M166.668,72.609c3.223-2.69,6.351-5.5,9.637-8.11c28.693-22.784,60.867-38.423,96.548-46.758
		c12.267-2.866,24.705-4.637,37.288-5.569c10.875-0.806,21.749-0.836,32.599-0.275c13.651,0.705,27.161,2.737,40.488,5.87
		c38.218,8.981,72.266,26.239,102.284,51.5c1.729,1.456,3.377,3.01,5.114,4.457c1.005,0.836,1.168,1.623,0.422,2.747
		c-1.369,2.062-2.615,4.205-3.938,6.298c-1.769,2.797-1.812,2.827-4.178,0.656c-3.97-3.644-8.123-7.064-12.357-10.39
		c-20.513-16.109-43.114-28.351-67.805-36.769c-16.673-5.685-33.75-9.371-51.287-11.131c-11.601-1.164-23.212-1.552-34.824-0.957
		c-24.233,1.242-47.757,6.052-70.48,14.688c-16.074,6.109-31.254,13.947-45.602,23.383c-9.276,6.1-18.027,12.914-26.285,20.348
		c-0.868,0.782-1.767,1.53-3.006,2.6c-1.892-3.477-3.498-6.511-5.189-9.497C165.381,74.435,165.59,73.509,166.668,72.609z"/>
	<path d="M151.239,368.532c1.26-0.27,1.762,1.255,3.424,1.589c-1.412-2.315-2.505-4.136-3.625-5.94
		c-1.492-2.404-1.49-2.347-4.408-1.74c-4.722,0.982-9.348,2.41-14.142,3.06c-0.244,0.258-0.524,0.4-0.76,0.041
		c-0.051-0.077,0.179-0.337,0.277-0.515c0.417-1.077,1.141-1.94,1.867-2.801c0.242-0.287,0.484-0.574,0.714-0.868
		c2.321-2.959,4.691-5.88,7.018-8.836c0.507-0.643,1.398-1.293,0.761-2.237c-1.52-2.252-2.547-4.865-4.979-7.138
		c0.41,2.047,0.465,3.451-1.156,4.44c-5.778,3.527-11.507,7.135-17.257,10.708c-0.987,0.613-1.977,0.703-3.042,0.109
		c-0.437-0.243-0.808-1.185-1.609-0.252c1.262,1.926,2.237,4.063,4.064,5.81c-0.329-1.867-0.101-3.465,1.569-4.469
		c4.872-2.931,9.502-6.264,14.608-8.805c0.251-0.166,0.502-0.333,0.752-0.501c-0.001-0.001-0.001-0.001-0.002-0.002
		c0.167-0.191,0.344-0.387,0.53-0.283c0.062,0.034,0.125,0.102,0.189,0.214c0.031,0.053-0.251,0.285-0.388,0.435
		c-0.18,0.251-0.359,0.501-0.538,0.753c-2.69,3.834-5.664,7.445-8.59,11.095c-0.976,1.217-1.945,2.438-2.898,3.672
		c-0.681,0.882-1.728,1.621-1.563,3.352c7.656-1.664,15.2-3.304,22.743-4.943c0.092,0.255,0.184,0.511,0.275,0.767
		c-5.471,3.359-10.946,6.711-16.409,10.083c-0.159,0.098-0.313,0.171-0.463,0.222c-1.052,0.359-1.914-0.328-2.839-0.719
		c0,0.001-0.001,0.001-0.002,0.002c-0.106-0.192-0.21-0.402-0.375-0.354c-0.036,0.011-0.075,0.029-0.118,0.069
		c-0.034,0.03-0.07,0.071-0.109,0.124c-0.017,0.023,0.239,0.25,0.368,0.382c1.46,3.397,3.652,6.314,5.784,9.271
		c-0.261-3.356-0.257-3.372,2.684-5.196c4.835-2.999,9.674-5.994,14.512-8.989C149.109,369.52,150.047,368.787,151.239,368.532z"/>
	<path d="M542.25,227.198c-3.365,0.442-3.357,0.498-5.693-2.307c0.354,2.755,0.769,5.044,0.9,7.35
		c0.096,1.668,0.938,2.179,2.391,2.441c3.386,0.611,6.768,1.266,10.118,2.042c1.829,0.423,3.806,0.387,5.527,1.428
		c-0.64,1.001-1.65,1.2-2.487,1.635c-3.915,2.037-7.851,4.034-11.787,6.028c-0.991,0.502-1.914,0.962-1.711,2.364
		c0.365,2.513,0.653,5.037,0.974,7.556c0.261,0.088,0.522,0.176,0.783,0.264c-0.135-2.561,1.304-3.227,3.388-3.47
		c5.979-0.696,11.938-1.592,17.918-2.287c3.109-0.361,3.13-0.242,5.512,2.313c-0.138-2.653-0.125-4.995-1.308-7.366
		c-0.44,3.091-2.707,3.403-4.998,3.696c-3.2,0.409-6.396,0.854-9.597,1.243c-2.322,0.282-4.652,0.496-6.979,0.74
		c-0.035-0.192-0.071-0.384-0.106-0.576c7.001-3.623,14.002-7.246,21.003-10.869c-0.046-0.245-0.092-0.49-0.138-0.735
		c-3.94-0.868-7.885-1.717-11.818-2.609c-3.838-0.871-7.777-1.376-11.451-2.879c5.822-0.974,11.58-1.714,17.344-2.405
		c1.059-0.127,2.145-0.112,3.212-0.059c1.365,0.069,1.216,1.748,2.47,2.687c-0.474-4.294-0.696-8.126-1.778-11.826
		c-0.988,2.836-1.249,3.06-4.076,3.408C553.989,225.729,548.114,226.427,542.25,227.198z"/>
	<path d="M126.898,147.832c-0.218,0.707-0.495,1.4-0.764,2.098c-0.13,0.336-0.256,0.673-0.374,1.013
		c-0.396,1.144-0.678,2.318-0.542,3.591c1.006-0.443,1.947-0.985,2.856-1.574c1.927-1.249,3.696-2.733,5.527-4.105
		c1.479-1.109,2.383-1.109,3.862,0c1.013,0.759,2.005,1.554,3.015,2.324c1.684,1.284,3.419,2.5,5.384,3.363v0
		c0.081-0.243,0.115-0.479,0.117-0.711c0.002-0.348-0.069-0.687-0.167-1.022c-0.099-0.335-0.225-0.667-0.333-1.001
		c-0.723-2.246-1.466-4.487-2.15-6.745c-0.784-2.585-0.76-2.591,1.371-4.185c2.621-1.961,5.24-3.923,7.86-5.885
		c-2.829-0.614-5.468-0.587-8.106-0.62c-5.364-0.065-4.257,0.656-5.969-4.207c-0.906-2.572-1.474-5.282-2.952-8.052
		c-1.479,2.77-2.047,5.48-2.953,8.052c-1.712,4.863-0.605,4.142-5.969,4.207c-2.638,0.032-5.277,0.006-7.916,0.006
		c-0.069,0.21-0.138,0.421-0.207,0.632c1.852,1.376,3.695,2.765,5.557,4.127C128.608,142.474,128.556,142.452,126.898,147.832z"/>
	<path fill="#9E9E94" d="M145.863,154.541c-0.008,0.022-0.01,0.044-0.019,0.066c0.032-0.009,0.043,0.004,0.07,0
		c-0.006-0.019-0.016-0.035-0.023-0.053C145.882,154.55,145.873,154.545,145.863,154.541z"/>
	<path fill="#9E9E94" d="M125.175,154.554c-0.007,0.018-0.017,0.034-0.023,0.052c0,0,0,0,0,0s0,0,0,0
		c0.027,0.004,0.038-0.008,0.069,0l0,0v0c-0.003-0.025,0-0.048-0.003-0.073h0C125.203,154.54,125.189,154.548,125.175,154.554z"/>
	<path d="M516.031,147.832c-0.592,1.921-1.634,3.748-1.71,5.805c-0.011,0.294-0.002,0.592,0.03,0.896
		c3.137-1.382,5.688-3.66,8.384-5.68c1.479-1.109,2.383-1.109,3.862,0c2.7,2.023,5.254,4.305,8.398,5.688
		c0.323-0.971-0.097-1.843-0.384-2.735c-0.723-2.246-1.466-4.487-2.15-6.745c-0.784-2.585-0.759-2.591,1.371-4.185
		c2.621-1.961,5.24-3.923,7.86-5.885c-2.829-0.613-5.468-0.587-8.105-0.619c-5.364-0.065-4.258,0.656-5.97-4.207
		c-0.905-2.572-1.474-5.282-2.952-8.052c-1.478,2.77-2.047,5.48-2.952,8.052c-1.712,4.863-0.605,4.142-5.969,4.207
		c-2.639,0.032-5.277,0.006-7.916,0.006c-0.069,0.21-0.138,0.421-0.207,0.632c1.853,1.376,3.695,2.765,5.558,4.127
		C517.741,142.474,517.689,142.452,516.031,147.832z"/>
	<path d="M95.066,243.07c6.024,0.104,12.051,0.046,18.071,0.436c2.077,0.135,3.854,0.361,3.852,3.602
		c1.145-3.14,1.272-9.607,0.372-12.385c-0.618,3.007-2.557,3.362-4.917,2.958c-0.526-0.09-1.073-0.063-1.61-0.088
		c-6.771-0.322-5.578,1.108-5.306-6.371c0.044-1.219,0.607-1.719,1.818-1.678c1.936,0.065,3.875,0.092,5.812,0.07
		c2.099-0.025,3.926,0.292,4.128,3.147c0.236-0.128,0.473-0.256,0.709-0.384c0-3.584,0-7.167,0-10.818
		c-1.683,2.306-1.683,2.332-4.729,2.307c-5.059-0.042-10.119-0.089-15.176-0.2c-2.829-0.062-5.978,0.627-7.721-2.761
		c0,3.583,0,7.165,0,10.982c1.679-2.5,1.679-2.507,4.492-2.523c0.968-0.005,1.937,0.031,2.905,0.053
		c6.248,0.145,6.25,0.177,5.579,6.282c-0.131,1.193-0.559,1.734-1.781,1.695c-2.043-0.066-4.096-0.17-6.133-0.06
		c-2.379,0.128-4.333-0.278-5.109-3.08c-0.593,3.846-0.547,7.49-0.551,11.676C91.829,243.051,91.83,243.014,95.066,243.07z"/>
	<path d="M444.886,444.216c0.57-0.794,0.866-1.7,0.956-2.701c0.535-5.937-4.839-10.074-10.421-7.893
		c-3.612,1.411-6.934,3.44-10.299,5.353c-0.789,0.448-1.847,0.608-2.233,1.688c3.188,0.055,3.207,0.044,4.867,3.072
		c2.688,4.905,5.359,9.819,8.01,14.746c0.557,1.035,1.083,2.106,1.459,3.217c0.433,1.277-1.322,1.707-1.593,3.205
		c3.731-1.682,6.872-3.547,10.581-5.703c-3.454-0.175-3.558-0.112-4.354-1.444c-1.324-2.214-2.514-4.508-3.728-6.785
		c-0.244-0.457-0.478-1.025,0.087-1.443c0.382-0.282,0.822-0.155,1.206,0.058c0.847,0.471,1.689,0.948,2.52,1.446
		c2.583,1.55,5.151,3.123,7.741,4.66c0.721,0.428,1.429,0.992,2.379,0.455c1.753-0.991,3.633-1.774,5.367-3.222
		c-4.618-1.332-8.135-4.205-12.045-6.347C444.298,445.98,444.16,445.227,444.886,444.216z M438.428,447.241
		c-1.199,0.807-2.025,0.91-2.763-0.603c-1.079-2.214-2.358-4.329-3.495-6.517c-1.235-2.377-0.849-3.188,1.716-3.786
		c0.415-0.097,0.845-0.135,1.089-0.173c2.501,0.03,4.903,2.477,5.662,5.581C441.24,444.21,440.555,445.81,438.428,447.241z"/>
	<path d="M116.446,328.729c2.839,1.78,5.756,1.604,8.53-0.061c2.525-1.515,3.808-3.921,3.285-6.833
		c-0.888-4.95-2.609-9.674-4.632-14.518c0.182,2.664-1.5,3.42-3.515,4.031c-5.65,1.712-11.3,3.436-16.901,5.301
		c-2.249,0.749-4.168,1.046-5.874-1.267c1.126,3.591,2.253,7.182,3.38,10.772c0.575-1.463,0.588-2.953,2.248-3.493
		c2.652-0.863,5.309-1.717,7.97-2.553c0.42-0.132,0.882-0.062,1.107,0.373c0.222,0.428,0.01,0.842-0.276,1.176
		c-0.978,1.143-1.963,2.28-2.965,3.402c-1.717,1.925-3.442,3.842-5.175,5.752c-0.588,0.648-1.197,1.265-0.815,2.261
		c0.705,1.837,0.964,3.857,2.282,6c0.655-1.703,1.191-2.952,2.141-3.97c1.833-1.963,3.579-4.007,5.4-5.982
		C114.29,327.326,114.293,327.378,116.446,328.729z M114.968,318.799c2.442-0.773,4.872-1.586,7.327-2.318
		c2.585-0.771,3.46-0.081,3.514,2.121c0,0.762,0.018,0.977-0.003,1.188c-0.246,2.468-3.258,4.576-6.796,4.764
		c-2.716,0.143-4.713-1.501-5.21-4.202C113.611,319.326,114.207,319.04,114.968,318.799z"/>
	<path d="M102.574,199.424c2.815,2.173,6.071,3.254,9.542,3.58c6.795,0.637,11.076-2.24,13.203-8.75
		c0.934-2.86,1.775-5.752,2.624-8.64c0.15-0.513,0.763-1.112-0.289-1.774c-0.773,2.605-2.558,2.394-4.605,1.755
		c-5.644-1.76-11.316-3.429-16.972-5.154c-3.424-1.044-3.419-1.061-4.113-4.177c-1.366,2.469-3.835,11.012-3.981,13.381
		C97.728,193.765,99.368,196.948,102.574,199.424z M100.065,187.136c0.241-1.235,0.948-1.909,2.274-1.688
		c0.635,0.105,1.274,0.224,1.89,0.409c5.967,1.803,11.934,3.608,17.891,5.442c2.083,0.642,2.233,1.039,1.24,2.93
		c-1.495,2.847-4.161,3.083-7.537,3.09c-4.398-0.431-9.134-1.676-13.28-4.644C100.662,191.33,99.592,189.556,100.065,187.136z"/>
	<path d="M402.312,465.265c1.457-0.696,2.91-1.37,4.021-2.609c2.068-2.309,2.395-5.309,0.876-8.405
		c-1.31-2.672-3.967-4.428-6.747-4.058c-4.692,0.626-8.913,2.721-13.373,4.631c2.887-0.331,3.62,1.581,4.32,3.563
		c2,5.667,4.023,11.325,6.022,16.993c0.961,2.725,0.921,2.833-1.008,5.143c3.544-1.022,7.032-1.977,10.514-3.683
		c-3.249-0.697-3.341-0.771-4.402-3.63c-0.561-1.51-1.121-3.019-1.641-4.542C400.114,466.382,400.146,466.3,402.312,465.265z
		 M398.709,462.612c-0.977-2.599-1.793-5.258-2.813-7.838c-0.538-1.363,0.152-1.767,1.202-1.974c1.4-0.276,2.531,0.364,3.397,1.373
		c1.517,1.767,2.076,3.935,2.358,6.165c-0.14,0.984-0.273,1.93-0.924,2.716C400.624,464.634,399.421,464.505,398.709,462.612z"/>
	<path d="M551.054,323.643c-6.042-1.899-12.075-3.831-18.098-5.794c-2.142-0.699-2.336-1.314-1.383-3.254
		c0.685-1.394,1.831-2.094,3.296-2.259c0.949-0.107,1.92-0.02,2.882-0.02c0.082-0.284,0.164-0.568,0.246-0.852
		c-1.781-0.576-3.557-1.171-5.347-1.719c-0.862-0.263-1.437,0.093-1.717,0.964c-1.843,5.723-3.699,11.441-5.539,17.165
		c-0.256,0.798-0.171,1.522,0.778,1.8c1.916,0.562,3.753,1.438,5.907,1.456c-1.193-1.231-2.668-2.115-3.527-3.604
		c-0.807-1.399-0.521-2.803,0.228-3.976c0.763-1.194,1.99-0.346,2.932-0.051c5.737,1.796,11.438,3.712,17.179,5.492
		c2.135,0.661,4.052,1.348,4.163,4.198c1.13-3.6,2.26-7.199,3.391-10.799C553.983,324.389,553.764,324.494,551.054,323.643z"/>
	<path d="M254.727,464.496c0.033-4.479,0.007-8.959,0.007-13.708c-0.966,0.252-1.354,0.784-1.774,1.259
		c-3.842,4.346-7.645,8.727-11.526,13.036c-2.444,2.715-4.534,5.837-8.346,7.232c3.574,1.996,4.848,2.416,6.842,2.327
		c-2.105-2.297-2.121-3.044-0.11-5.356c1.512-1.738,1.753-1.797,4.182-0.92c0.605,0.219,1.187,0.506,1.792,0.722
		c3.496,1.245,3.092,1.148,2.992,4.623c-0.089,3.091-0.106,3.09-3.11,3.602c3.259,1.283,6.368,2.978,10.322,3.807
		c-0.918-1.703-1.504-2.939-1.471-4.384C254.622,472.657,254.696,468.576,254.727,464.496z M249.067,467.19
		c-0.01,0.842-0.703,1.051-1.375,0.792c-1.563-0.602-3.236-0.98-4.729-2.062c1.747-2.391,3.632-4.512,5.998-6.835
		C249.424,462.034,249.097,464.621,249.067,467.19z"/>
	<path d="M298.187,482.25c-2.308,4.252-4.182,5.101-8.93,4.055c-2.363-0.521-2.728-0.921-2.36-3.258
		c0.918-5.832,1.907-11.653,2.896-17.474c0.196-1.153,0.194-2.348,0.86-3.41c0.699-1.116,2.166-0.44,3.603-1.58
		c-4.51-0.576-8.293-1.566-12.432-1.792c2.707,2.068,2.815,2.085,2.365,5.043c-0.938,6.155-2.044,12.285-2.99,18.438
		c-0.318,2.07-1.035,3.521-3.634,3.236c0.048,0.226,0.095,0.451,0.142,0.676c4.853,0.825,9.694,1.734,14.565,2.43
		c1.676,0.238,3.549,1.354,5.012,0.479c1.624-0.974,1.246-3.275,1.817-4.97c0.436-1.291,0.986-2.625,0.626-4.802
		C298.97,480.764,298.588,481.512,298.187,482.25z"/>
	<path d="M538.618,356.724c-7.506-1.354-15.002-2.764-22.507-4.128c-0.662-0.12-1.41-0.52-2.169,0.272
		c0.361,0.534,0.676,1.083,1.069,1.568c4.072,5.009,8.16,10.004,12.236,15.01c1.922,2.36,4.168,4.532,4.287,8.57
		c0.428-0.594,0.82-1.149,1.179-1.681c1.077-1.594,1.855-2.966,2.396-4.483c0.381-0.216,0.63-0.637,0.292-0.896
		c-0.417-0.318-0.532,0.267-0.733,0.522c-1.422,1.155-2.652,0.946-3.96-0.317c-2.471-2.388-2.548-2.574-0.775-5.662
		c0.536-0.933,1.066-1.869,1.618-2.792c0.273-0.458,0.539-1.058,1.102-1.1c1.735-0.131,3.403,0.341,5.011,0.909
		c1.521,0.538,0.534,2.005,0.869,3.74c2.215-3.501,4.091-6.416,5.311-9.813C542.018,357.266,540.3,357.026,538.618,356.724z
		 M527.072,366.559c-2.097-2.16-3.844-4.372-5.781-6.998c3.377,0.119,6.088,0.968,9.225,1.446
		C529.343,363.059,528.571,364.904,527.072,366.559z"/>
	<path d="M530.566,193.754c0.464,0.134,0.754,0.266,1.055,0.298c5.881,0.635,11.771,1.187,17.642,1.909
		c3.754,0.461,7.712,0.072,11.402,2.847c-0.511-2.82-0.925-5.077-2.09-7.319c-1.017,3.302-1.225,3.474-4.257,3.331
		c-3.079-0.146-2.946-0.409-3.42-2.799c-0.25-1.263-0.656-2.496-0.988-3.743c-0.246-0.927-0.066-1.684,0.819-2.213
		c0.646-0.386,1.245-0.849,1.879-1.257c2.224-1.431,2.226-1.427,4.519,0.642c-0.531-3.644-1.536-6.845-2.736-10.603
		c-1.323,2.804-3.403,4.092-5.403,5.475c-5.313,3.674-10.632,7.339-15.915,11.055C532.172,192.011,531.014,192.47,530.566,193.754z
		 M548.005,187.915c0.441,1.49,0.736,2.389,0.971,3.305c0.237,0.924,0.414,1.863,0.699,3.17c-2.961-0.257-5.738-0.498-9.177-0.796
		C542.871,191.013,545.462,189.886,548.005,187.915z"/>
	<path d="M562.361,276.161c-6.873,1.246-13.736,2.549-20.599,3.855c-1.27,0.242-2.621,0.301-4.142,1.197
		c6.436,3.744,12.466,7.263,18.509,10.762c2.71,1.57,5.668,2.807,7.268,6.073c1.271-4.253,1.361-5.051,0.897-7.265
		c-1.921,2.495-2.26,2.577-4.964,1.192c-2.452-1.255-2.45-1.254-1.963-3.938c0.096-0.529,0.177-1.061,0.253-1.592
		c0.561-3.885,0.561-3.885,4.494-4.442c2.284-0.324,2.41-0.248,3.75,2.604c0.742-3.885,1.555-7.226,1.656-11.242
		C565.871,275.301,564.191,275.829,562.361,276.161z M551.536,287.556c-1.347-0.764-2.661-1.583-4.582-2.731
		c3.133-0.604,5.49-1.068,7.852-1.51c1.1-0.206,1.519,0.239,1.476,1.388C556.098,289.578,555.63,289.882,551.536,287.556z"/>
	<path d="M108.888,284.364c3.664-1.783,7.323-3.574,11.601-5.663c-2.401-1.157-4.304-1.437-6.117-1.993
		c-7.783-2.387-16.044-3.236-23.399-7.32c-0.067,2.375,0.122,4.628,0.877,6.975c0.881-0.912,0.661-2.356,1.837-2.736
		c1.626-0.525,3.199-0.029,4.724,0.522c1.386,0.501,0.871,1.797,1.036,2.783c0.212,1.271,0.379,2.554,0.479,3.838
		c0.041,0.512,0.038,1.311-0.263,1.52c-1.5,1.037-3.106,1.948-4.939,2.254c-1.431,0.239-1.286-1.503-2.217-2.017
		c-0.279,2.922,0.391,8.749,1.333,10.889c0.725-2.079,2.375-2.892,4.014-3.696C101.525,287.921,105.211,286.153,108.888,284.364z
		 M101.324,274.971c2.935,0.59,5.597,1.194,8.938,2.414c-2.916,1.412-5.18,2.529-7.464,3.604c-0.77,0.362-1.267-0.009-1.333-0.806
		C101.326,278.495,101.087,276.798,101.324,274.971z"/>
	<path d="M341.69,484.149c-2.623-6.359-5.184-12.744-7.804-19.104c-0.304-0.737-0.367-1.71-1.382-2.026
		c-0.806,0.685-0.912,1.667-1.208,2.554c-1.604,4.788-3.134,9.604-4.817,14.364c-1.359,3.843-1.918,8.058-5.288,11.085
		c2.649,0,4.938,0,7.227,0c0.057-0.254,0.114-0.509,0.171-0.762c-1.404-0.212-2.769-0.578-2.841-2.164
		c-0.07-1.526,0.479-2.985,1.223-4.288c0.611-1.071,7.574-1.31,8.185-0.26c0.693,1.191,1.015,2.592,1.583,3.864
		c0.746,1.673-0.974,2.154-1.84,3.341c3.734-0.137,7.117,0.132,11.052-0.508C343.307,488.581,342.578,486.303,341.69,484.149z
		 M332.988,481.373c-1.679,0.051-3.361,0.016-5.345,0.016c0.959-2.966,1.838-5.683,2.871-8.877c1.691,2.594,2.353,5.152,3.352,7.546
		C334.176,480.803,333.786,481.35,332.988,481.373z"/>
	<path d="M486.998,423.081c-5.916-3.304-11.811-6.646-17.724-9.955c-0.818-0.458-1.556-1.161-2.635-1.075
		c-0.622,1.14,0.138,2.083,0.476,3.041c1.361,3.852,2.903,7.643,4.165,11.525c1.491,4.593,4.145,8.861,3.73,14.422
		c1.995-1.709,3.87-2.74,5.013-4.607c-3.267,0.027-4.289-0.775-5.066-3.91c-0.191-0.772-0.274-1.485,0.402-2.068
		c1.55-1.332,3.096-2.668,4.656-3.987c0.343-0.289,0.78-0.418,1.195-0.179c1.396,0.805,2.799,1.603,4.152,2.475
		c0.609,0.392,0.642,1.046,0.423,1.73c-0.174,0.544-1.119,0.81-0.451,1.829c2.646-2.418,5.557-4.466,7.857-7.261
		C490.704,425.338,488.867,424.125,486.998,423.081z M473.961,429.309c-1.223-2.765-2.287-5.353-3.109-8.736
		c3.14,1.411,5.453,2.874,7.938,4.419C477.431,426.779,475.865,428.084,473.961,429.309z"/>
	<path d="M169.843,395.512c-5.656,2.041-11.31,4.093-16.969,6.127c-2.946,1.06-5.81,2.532-9.801,1.403
		c1.935,2.326,3.278,4.078,5.164,5.755c0.163-1.347-0.843-2.529,0.333-3.53c1.281-1.091,2.759-1.715,4.356-1.911
		c1.267-0.155,1.658,1.197,2.374,1.937c0.82,0.847,1.551,1.783,2.305,2.693c0.496,0.599,0.967,1.306,0.469,2.043
		c-1.246,1.844-1.603,4.526-4.965,4.738c2.057,2.543,3.704,4.85,6.241,7.07c-0.069-3.274,1.595-5.435,2.876-7.732
		c3.141-5.63,6.377-11.206,9.548-16.818c0.435-0.77,1.12-1.499,1.011-2.556C171.587,394.726,170.734,395.189,169.843,395.512z
		 M159.521,407.496c-1.795-1.585-3.004-3.136-4.164-4.95c2.636-1.56,5.409-2.134,8.65-3.401
		C162.766,402.432,161.094,404.694,159.521,407.496z"/>
	<path d="M509.212,392.524c-3.548-2.795-7.159-5.51-10.725-8.283c-2.673-2.079-2.657-2.099-2.245-5.656
		c-2.49,2.991-4.766,5.623-6.519,8.667c-0.396,0.161-0.591,0.455-0.534,0.882c0.01,0.069,0.159,0.188,0.211,0.173
		c0.411-0.121,0.539-0.467,0.615-0.843c1.859-0.769,3.285,0.049,4.718,1.164c4.329,3.368,8.717,6.659,13.05,10.022
		c1.014,0.786,1.97,1.675,2.823,2.632c0.77,0.863,0.605,1.85-0.309,2.53c-0.908,0.677-1.789,0.61-2.435-0.479
		c-0.38-0.642-0.733-1.341-1.262-1.843c-0.982-0.932-2.611-0.903-3.538-0.076c-0.992,0.887-1.058,2.233-0.128,3.479
		c0.741,0.994,1.773,1.541,2.978,1.772c2.932,0.566,5.572-0.654,7.118-3.281c1.572-2.671,1.444-5.521-0.52-7.792
		C511.534,394.463,510.389,393.452,509.212,392.524z"/>
	<path d="M219.23,433.184c0.578,1.668,0.352,2.869-0.375,4.019c-3.393,5.369-6.746,10.763-10.135,16.134
		c-0.516,0.817-1.109,1.604-1.989,2.082c-0.961,0.522-1.646,0.012-2.231-0.686c-0.588-0.702-0.5-1.392,0.188-1.974
		c0.573-0.485,1.267-0.854,1.758-1.405c1.08-1.215,1.042-2.793,0.019-3.781c-1.042-1.007-2.505-0.882-3.707,0.371
		c-0.765,0.797-1.183,1.771-1.309,2.885c-0.321,2.847,1.153,5.45,3.9,6.827c2.596,1.301,5.697,0.891,7.746-1.232
		c1.11-1.151,2.041-2.504,2.911-3.856c2.389-3.71,4.74-7.446,7.031-11.218c1.199-1.974,2.392-3.764,5.301-2.679
		c-1.646-1.323-3.221-2.427-4.877-3.39C222.272,434.587,221.229,433.591,219.23,433.184z"/>
	<path fill="#9E9E94" d="M145.997,154.793c0.025,0.031,0.167,0.016,0.168,0.012c0.019-0.159-0.072-0.208-0.221-0.194
		c-0.012,0.001-0.016-0.006-0.029-0.004h0C145.938,154.673,145.955,154.743,145.997,154.793z"/>
	<path fill="#9E9E94" d="M124.902,154.806c0,0.004,0.143,0.019,0.168-0.012c0.042-0.051,0.059-0.121,0.082-0.187
		C124.98,154.581,124.882,154.634,124.902,154.806z"/>
	<path fill="#9E9E94" d="M480.187,436.021c-0.119-0.063-0.213,0.174-0.113,0.362C480.247,436.302,480.699,436.293,480.187,436.021z"
		/>
	<path fill="#9E9E94" d="M480.073,436.384c-0.008,0.004-0.018,0.007-0.024,0.011c-0.008,0.013-0.018,0.024-0.025,0.037
		c0.025,0,0.045,0.002,0.071,0.002C480.083,436.418,480.082,436.4,480.073,436.384z"/>
	<path fill="#9E9E94" d="M535.048,154.607c-0.007-0.019-0.017-0.035-0.023-0.053c-0.01-0.004-0.019-0.009-0.028-0.014
		c-0.008,0.022-0.011,0.044-0.019,0.066C535.01,154.598,535.021,154.611,535.048,154.607z"/>
	<path fill="#9E9E94" d="M535.297,154.806c0.021-0.171-0.078-0.225-0.249-0.199c0.022,0.066,0.04,0.136,0.081,0.187
		C535.154,154.825,535.297,154.81,535.297,154.806z"/>
	<path fill="#9E9E94" d="M514.035,154.806c0,0.004,0.143,0.019,0.168-0.012c0.041-0.051,0.059-0.121,0.082-0.187
		C514.113,154.581,514.015,154.634,514.035,154.806z"/>
	<path fill="#9E9E94" d="M514.285,154.606L514.285,154.606c0.026,0.004,0.038-0.008,0.069,0v0c-0.003-0.025-0.001-0.048-0.003-0.073
		c-0.016,0.006-0.029,0.015-0.044,0.021C514.301,154.572,514.291,154.588,514.285,154.606z"/>
	
		<line fill="none" stroke="#9E9E94" stroke-width="0" stroke-linecap="round" stroke-linejoin="round" x1="514.354" y1="154.606" x2="514.354" y2="154.607"/>
	<path fill="#0000CC" d="M300.983,280.771c-1.083-0.291-2.107,0.005-3.171,0.22c-9.932,2.007-19.688,1.789-29.064-2.541
		c-5.719-2.64-10.595-6.534-15.543-10.364c-6.675-5.167-10.84-11.845-12.956-19.91c-0.877-3.343-1.363-6.739-1.347-10.21
		c0.031-6.462-0.093-12.928,0.062-19.386c0.052-2.153-0.69-3.37-2.514-4.339c-4.276-2.272-8.475-4.691-12.723-7.016
		c-1.048-0.574-2.028-1.221-2.904-2.026c-2.779-2.556-3.391-5.604-1.565-9.009c0.625-1.164,0.526-2.263,0.523-3.426
		c-0.011-3.394,0.419-3.941,3.619-5.21c2.885-1.144,5.807-1.468,8.861-0.914c1.157,0.21,2.351,0.249,3.531,0.295
		c3.072,0.12,3.091,0.104,3.112-2.811c0.022-3.016,0.025-6.032-0.001-9.047c-0.026-2.941-0.047-2.948-3.125-2.976
		c-1.723-0.016-3.448,0.044-5.17-0.018c-2.134-0.077-2.493-0.601-1.564-2.585c1.96-4.193,4.009-8.344,6.051-12.499
		c4.653-9.47,9.312-18.937,14.006-28.386c0.448-0.902,0.564-2.369,1.878-2.334c1.091,0.028,1.248,1.351,1.659,2.185
		c6.561,13.33,13.101,26.67,19.644,40.009c0.19,0.386,0.392,0.77,0.546,1.17c0.729,1.896,0.484,2.361-1.484,2.433
		c-2.152,0.079-4.31,0.073-6.461,0.007c-1.444-0.044-2.189,0.375-2.161,1.984c0.069,3.877-0.017,7.755,0.039,11.632
		c0.028,1.918,0.385,2.245,2.057,1.817c9.752-2.499,19.622-2.287,29.514-1.295c5.796,0.582,11.416,2.044,16.953,3.821
		c0.718,0.23,1.449,0.424,2.149,0.698c1.504,0.588,1.96-0.118,1.933-1.492c-0.011-0.538,0.007-1.077,0.007-1.615
		c0-15.941,0-31.883,0-47.824c0-0.539-0.027-1.078-0.004-1.616c0.052-1.237-0.551-1.723-1.758-1.703
		c-2.046,0.034-4.096,0.064-6.138-0.027c-1.628-0.073-1.901-0.554-1.355-2.027c0.186-0.502,0.463-0.971,0.7-1.454
		c6.496-13.242,12.981-26.49,19.51-39.715c0.49-0.994,0.631-2.646,2.06-2.576c1.36,0.066,1.462,1.699,1.96,2.709
		c6.429,13.035,12.819,26.09,19.219,39.139c0.095,0.193,0.2,0.382,0.292,0.576c1.42,3.001,1.237,3.323-1.966,3.373
		c-1.615,0.025-3.231,0.046-4.846,0.004c-1.383-0.036-1.973,0.599-1.902,1.948c0.028,0.537-0.002,1.077-0.002,1.616
		c-0.001,20.465,0.042,40.93-0.056,61.395c-0.013,2.454,0.661,3.994,2.819,5.218c4.117,2.335,8.104,4.9,12.131,7.392
		c0.928,0.575,1.867,1.069,2.98,1.137c11.528-13.092,23.058-26.188,34.595-39.276c0.281-0.319,0.644-0.567,0.968-0.848
		c0.16-1.079,0.05-1.946-1.365-1.937c-2.146,0.014-4.294,0.026-6.439-0.016c-2.889-0.057-3.186-0.458-1.973-2.941
		c6.736-13.784,13.506-27.552,20.266-41.325c0.188-0.385,0.376-0.773,0.601-1.138c0.535-0.875,1.205-0.886,1.766-0.091
		c0.49,0.695,0.846,1.491,1.222,2.261c2.497,5.108,4.971,10.228,7.483,15.329c0.517,1.049,0.872,2.203,1.746,3.052
		c8.477-9.564,16.953-19.129,25.431-28.693c4.631-5.224,9.265-10.446,13.9-15.67c-0.733-1.364-1.923-2.255-3.11-3.139
		c-0.17-0.126-0.34-0.252-0.508-0.379c-0.192-0.146-0.383-0.292-0.569-0.443c-34.144-27.55-73.236-42.061-116.972-44.125
		c-11.846-0.56-23.68,0.198-35.416,1.919c-23,3.373-44.773,10.491-65.262,21.542c-23.941,12.913-44.5,29.913-61.171,51.366
		c-29.581,38.067-43.774,81.234-42.081,129.546c0.462,13.177,2.216,26.143,5.352,38.923c9.198,37.492,27.937,69.484,55.721,96.218
		c1.211,1.165,2.286,2.6,4.05,3.075c22.99-26.057,45.983-52.111,68.968-78.172C277.812,307.088,289.395,293.927,300.983,280.771z"/>
	<path fill="#FFFFFE" d="M378.295,443.033c17.937-4.63,34.865-11.685,50.799-21.147c21.164-12.568,39.372-28.508,54.579-47.846
		c10.706-13.614,19.395-28.442,26.217-44.368c8.723-20.362,13.883-41.626,15.247-63.689c0.95-15.367,0.377-30.729-2.247-46.002
		c-2.971-17.294-8.011-33.904-15.333-49.815c-11.411-24.799-27.461-46.2-47.703-64.483c-0.1-0.09-0.197-0.182-0.295-0.274
		c-0.685-0.646-1.35-1.316-2.345-1.502c-4.636,5.224-9.27,10.446-13.9,15.67c-8.478,9.563-16.954,19.128-25.431,28.693
		c2.304,5.569,5.066,10.922,7.713,16.33c0.852,1.74,1.737,3.464,2.566,5.214c1.322,2.79,1,3.279-2.194,3.336
		c-1.83,0.033-3.661,0.045-5.49,0.002c-1.343-0.032-2.01,0.501-1.944,1.891c0.041,0.859,0.001,1.722,0.001,2.583
		c-0.001,17.982,0.182,35.966-0.076,53.944c-0.138,9.668-2.321,18.975-7.409,27.397c-1.688,2.793-3.705,5.33-6.508,7.057
		c-1.614,0.995-1.448,2.076-0.771,3.488c2.276,4.753,4.394,9.576,5.905,14.637c3.451,11.555,4.646,23.19,0.47,34.803
		c-2.34,6.507-6.17,12.285-9.677,18.214c-5.65,9.552-13.987,15.577-24.346,19.069c-1.934,0.652-3.842,1.39-5.801,1.953
		c-1.606,0.461-2.475,1.631-3.275,2.921c-3.292,5.299-6.615,10.578-9.845,15.915c-2.402,3.97-5.132,7.693-8.08,11.264
		c-0.405,0.492-0.851,1.01-1.39,1.318c-0.877,0.502-1.719,0.41-1.942-0.776c-0.318-1.688-0.603-3.386-0.809-5.09
		c-0.436-3.599-1.844-6.754-4.298-9.972c-0.534,1.348-0.354,2.395-0.354,3.39c-0.014,12.274-0.009,24.55-0.009,36.824
		c0,0.754,0.029,1.509-0.008,2.261c-0.11,2.239-0.374,2.495-2.722,2.582c-1.076,0.04-2.154,0.009-3.23,0.009
		c-4.522,0-9.045,0.014-13.567-0.005c-3.341-0.015-3.485-0.146-3.491-3.435c-0.015-10.229-0.005-20.458-0.005-30.688
		c0-10.875-0.062-21.751,0.052-32.625c0.022-2.126-0.658-3.401-2.47-4.395c-3.774-2.067-7.478-4.26-10.933-6.85
		c-0.962-0.721-1.812-1.506-2.506-2.481c-1.594-2.237-1.321-2.915,1.308-3.316c3.413-0.521,6.842-0.686,10.291-0.702
		c4.743-0.023,4.246,0.467,4.251-4.409c0.017-14.32-0.03-28.642,0.047-42.962c0.011-2.021-0.441-3.384-2.255-4.509
		c-1.426-0.884-2.631-2.241-3.674-3.589c-0.858-1.109-1.57-1.543-2.932-0.93c-2.435,1.098-5.221,1.288-7.491,2.833
		c-11.588,13.153-23.172,26.315-34.77,39.466c-22.985,26.061-45.978,52.115-68.968,78.172c0.35,1.229,1.376,1.906,2.259,2.67
		c6.279,5.427,12.841,10.495,19.749,15.093c20.564,13.688,42.894,23.247,67.026,28.596c11.154,2.472,22.451,3.93,33.841,4.437
		c9.998,0.444,19.993,0.078,29.968-1.033C359.623,447.108,369.021,445.427,378.295,443.033z"/>
	<path fill="#FFFFFE" d="M482.861,85.514c-8.702-7.729-17.742-15.03-27.443-21.474c-17.771-11.804-36.803-21.015-57.113-27.563
		c-18.213-5.872-36.896-9.395-55.978-10.432c-10.737-0.584-21.509-0.502-32.274,0.308c-11.399,0.857-22.637,2.586-33.761,5.125
		c-21.664,4.944-42.115,13.013-61.438,23.972c-14.101,7.997-27.178,17.412-39.239,28.238c-3.484,3.127-3.471,3.16-1.264,7.176
		c1.591,2.896,2.923,5.945,4.934,8.795c42.07-38.898,91.412-59.437,148.678-59.448c57.265-0.011,106.61,20.525,148.728,59.437
		c2.378-3.822,4.629-7.474,6.918-11.102C484.439,87.229,483.852,86.394,482.861,85.514z"/>
	<path fill="#FF3300" d="M171.287,85.195c1.239-1.07,2.138-1.818,3.006-2.6c8.258-7.434,17.009-14.248,26.285-20.348
		c14.347-9.436,29.528-17.274,45.602-23.383c22.723-8.636,46.247-13.446,70.48-14.688c11.612-0.595,23.224-0.207,34.824,0.957
		c17.537,1.76,34.614,5.446,51.287,11.131c24.69,8.417,47.292,20.66,67.805,36.769c4.234,3.326,8.388,6.747,12.357,10.39
		c2.366,2.17,2.409,2.141,4.178-0.656c1.323-2.093,2.569-4.236,3.938-6.298c0.746-1.124,0.583-1.911-0.422-2.747
		c-1.737-1.446-3.385-3-5.114-4.457c-30.019-25.261-64.066-42.519-102.284-51.5c-13.327-3.132-26.837-5.165-40.488-5.87
		c-10.85-0.561-21.724-0.531-32.599,0.275c-12.583,0.933-25.021,2.704-37.288,5.569c-35.681,8.335-67.855,23.975-96.548,46.758
		c-3.287,2.61-6.414,5.42-9.637,8.11c-1.078,0.9-1.287,1.826-0.571,3.089C167.789,78.684,169.395,81.718,171.287,85.195z"/>
	<path fill="#FFFF01" d="M434.975,436.163c-0.244,0.038-0.674,0.076-1.089,0.173c-2.564,0.599-2.951,1.409-1.716,3.786
		c1.137,2.188,2.416,4.303,3.495,6.517c0.737,1.513,1.563,1.409,2.763,0.603c2.127-1.432,2.813-3.031,2.209-5.497
		C439.878,438.64,437.476,436.193,434.975,436.163z"/>
	<path fill="#FFFF01" d="M119.01,324.554c3.538-0.188,6.55-2.296,6.796-4.764c0.021-0.212,0.003-0.427,0.003-1.188
		c-0.054-2.201-0.929-2.891-3.514-2.121c-2.455,0.732-4.885,1.545-7.327,2.318c-0.761,0.241-1.356,0.527-1.168,1.553
		C114.296,323.053,116.294,324.696,119.01,324.554z"/>
	<path fill="#FFFF01" d="M115.824,197.319c3.376-0.007,6.042-0.243,7.537-3.09c0.993-1.892,0.842-2.289-1.24-2.93
		c-5.958-1.834-11.924-3.639-17.891-5.442c-0.615-0.186-1.254-0.304-1.89-0.409c-1.326-0.22-2.033,0.453-2.274,1.688
		c-0.473,2.42,0.597,4.193,2.479,5.54C106.69,195.644,111.426,196.889,115.824,197.319z"/>
	<path fill="#FFFF01" d="M401.931,463.055c0.65-0.786,0.784-1.731,0.924-2.716c-0.282-2.23-0.842-4.398-2.358-6.165
		c-0.866-1.009-1.997-1.649-3.397-1.373c-1.05,0.207-1.74,0.61-1.202,1.974c1.02,2.58,1.836,5.239,2.813,7.838
		C399.421,464.505,400.624,464.634,401.931,463.055z"/>
	<path fill="#FFFF01" d="M242.962,465.921c1.494,1.081,3.166,1.46,4.729,2.062c0.672,0.259,1.365,0.05,1.375-0.792
		c0.03-2.569,0.357-5.156-0.106-8.104C246.594,461.409,244.709,463.53,242.962,465.921z"/>
	<path fill="#FFFF01" d="M527.072,366.559c1.499-1.654,2.271-3.5,3.443-5.552c-3.137-0.479-5.848-1.327-9.225-1.446
		C523.229,362.187,524.976,364.398,527.072,366.559z"/>
	<path fill="#FFFF01" d="M548.976,191.22c-0.234-0.916-0.529-1.815-0.971-3.305c-2.543,1.971-5.134,3.099-7.507,5.679
		c3.438,0.298,6.216,0.539,9.177,0.796C549.39,193.083,549.213,192.144,548.976,191.22z"/>
	<path fill="#FFFF01" d="M554.806,283.314c-2.361,0.442-4.719,0.906-7.852,1.51c1.921,1.148,3.235,1.967,4.582,2.731
		c4.094,2.326,4.562,2.021,4.745-2.854C556.324,283.553,555.905,283.108,554.806,283.314z"/>
	<path fill="#FFFF01" d="M102.798,280.989c2.284-1.075,4.548-2.192,7.464-3.604c-3.341-1.22-6.002-1.824-8.938-2.414
		c-0.237,1.828,0.002,3.524,0.141,5.212C101.531,280.98,102.028,281.351,102.798,280.989z"/>
	<path fill="#FFFF01" d="M330.514,472.512c-1.033,3.194-1.911,5.911-2.871,8.877c1.984,0,3.666,0.035,5.345-0.016
		c0.797-0.023,1.188-0.57,0.877-1.315C332.867,477.664,332.206,475.105,330.514,472.512z"/>
	<path fill="#FFFF01" d="M473.961,429.309c1.904-1.225,3.47-2.529,4.829-4.317c-2.485-1.545-4.799-3.008-7.938-4.419
		C471.674,423.956,472.738,426.544,473.961,429.309z"/>
	<path fill="#FFFF01" d="M159.521,407.496c1.572-2.802,3.245-5.064,4.486-8.352c-3.241,1.268-6.014,1.842-8.65,3.401
		C156.518,404.36,157.727,405.911,159.521,407.496z"/>
	<path fill="#9E9E94" d="M408.653,129.887c-0.376-0.77-0.731-1.566-1.222-2.261c-0.561-0.794-1.23-0.783-1.766,0.091
		c-0.225,0.365-0.412,0.753-0.601,1.138c-6.76,13.772-13.529,27.541-20.266,41.325c-1.213,2.483-0.916,2.884,1.973,2.941
		c2.146,0.042,4.293,0.03,6.439,0.016c1.415-0.009,1.525,0.858,1.365,1.937c0.043,4.626,0.116,9.252,0.123,13.878
		c0.018,11.84-0.023,23.681,0.028,35.521c0.011,2.514-0.427,4.913-1.148,7.287c-0.642,2.106-0.908,2.208-2.856,1.017
		c-1.741-1.064-3.441-2.193-5.183-3.254c-5.892-3.591-12.468-5.813-18.457-9.212c-2.15-1.221-4.318-2.412-6.494-3.588
		c-0.681-0.368-1.303-0.756-1.575-1.524c-1.113-0.068-2.053-0.563-2.98-1.137c-4.027-2.491-8.014-5.057-12.131-7.392
		c-2.158-1.224-2.832-2.764-2.819-5.218c0.098-20.465,0.055-40.93,0.056-61.395c0-0.539,0.03-1.079,0.002-1.616
		c-0.07-1.349,0.52-1.984,1.902-1.948c1.614,0.042,3.23,0.021,4.846-0.004c3.203-0.05,3.386-0.372,1.966-3.373
		c-0.092-0.194-0.197-0.383-0.292-0.576c-6.4-13.049-12.791-26.104-19.219-39.139c-0.498-1.01-0.6-2.643-1.96-2.709
		c-1.428-0.07-1.569,1.582-2.06,2.576c-6.529,13.226-13.014,26.473-19.51,39.715c-0.237,0.483-0.514,0.952-0.7,1.454
		c-0.546,1.473-0.273,1.954,1.355,2.027c2.042,0.091,4.092,0.061,6.138,0.027c1.207-0.02,1.81,0.466,1.758,1.703
		c-0.022,0.538,0.004,1.077,0.004,1.616c0,15.941,0,31.882,0,47.824c0,0.538-0.018,1.077-0.007,1.615
		c0.027,1.374-0.428,2.08-1.933,1.492c-0.7-0.273-1.431-0.468-2.149-0.698c-5.538-1.777-11.157-3.239-16.953-3.821
		c-9.893-0.992-19.762-1.204-29.514,1.295c-1.672,0.428-2.029,0.101-2.057-1.817c-0.055-3.877,0.03-7.755-0.039-11.632
		c-0.028-1.608,0.717-2.028,2.161-1.984c2.152,0.066,4.31,0.072,6.461-0.007c1.968-0.072,2.214-0.537,1.484-2.433
		c-0.154-0.401-0.356-0.784-0.546-1.17c-6.543-13.339-13.083-26.679-19.644-40.009c-0.411-0.834-0.567-2.157-1.659-2.185
		c-1.314-0.035-1.43,1.432-1.878,2.334c-4.694,9.449-9.353,18.916-14.006,28.386c-2.042,4.155-4.091,8.306-6.051,12.499
		c-0.928,1.984-0.57,2.508,1.564,2.585c1.722,0.063,3.447,0.002,5.17,0.018c3.078,0.028,3.1,0.035,3.125,2.976
		c0.026,3.016,0.023,6.032,0.001,9.047c-0.021,2.915-0.04,2.931-3.112,2.811c-1.18-0.046-2.374-0.085-3.531-0.295
		c-3.054-0.554-5.976-0.23-8.861,0.914c-3.199,1.269-3.629,1.816-3.619,5.21c0.003,1.163,0.102,2.262-0.523,3.426
		c-1.826,3.405-1.213,6.453,1.565,9.009c0.875,0.805,1.856,1.453,2.904,2.026c4.249,2.325,8.447,4.744,12.723,7.016
		c1.824,0.969,2.566,2.186,2.514,4.339c-0.155,6.458-0.031,12.924-0.062,19.386c-0.017,3.471,0.47,6.867,1.347,10.21
		c2.116,8.065,6.281,14.744,12.956,19.91c4.949,3.83,9.825,7.724,15.543,10.364c9.375,4.33,19.132,4.547,29.064,2.541
		c1.064-0.215,2.089-0.511,3.171-0.22c0,0,0.001,0,0.001,0c2.27-1.545,5.056-1.735,7.491-2.833c1.362-0.613,2.074-0.179,2.932,0.93
		c1.043,1.348,2.249,2.705,3.674,3.589c1.814,1.125,2.267,2.487,2.255,4.509c-0.078,14.32-0.03,28.642-0.047,42.962
		c-0.006,4.876,0.492,4.386-4.251,4.409c-3.449,0.017-6.878,0.182-10.291,0.702c-2.628,0.401-2.901,1.079-1.308,3.316
		c0.694,0.976,1.543,1.761,2.506,2.481c3.455,2.59,7.159,4.782,10.933,6.85c1.812,0.993,2.492,2.269,2.47,4.395
		c-0.113,10.874-0.052,21.75-0.052,32.625c0,10.229-0.01,20.459,0.005,30.688c0.005,3.289,0.15,3.42,3.491,3.435
		c4.522,0.019,9.045,0.005,13.567,0.005c1.077,0,2.155,0.031,3.23-0.009c2.348-0.087,2.611-0.343,2.722-2.582
		c0.037-0.752,0.008-1.507,0.008-2.261c0-12.274-0.005-24.55,0.009-36.824c0.001-0.995-0.18-2.042,0.354-3.39
		c2.454,3.218,3.862,6.373,4.298,9.972c0.206,1.704,0.49,3.402,0.809,5.09c0.224,1.187,1.065,1.278,1.942,0.776
		c0.539-0.309,0.984-0.826,1.39-1.318c2.948-3.57,5.678-7.294,8.08-11.264c3.229-5.337,6.553-10.616,9.845-15.915
		c0.801-1.29,1.669-2.46,3.275-2.921c1.959-0.563,3.867-1.301,5.801-1.953c10.358-3.492,18.695-9.518,24.346-19.069
		c3.507-5.929,7.337-11.707,9.677-18.214c4.176-11.613,2.981-23.249-0.47-34.803c-1.512-5.061-3.629-9.884-5.905-14.637
		c-0.677-1.412-0.843-2.493,0.771-3.488c2.803-1.728,4.82-4.264,6.508-7.057c5.088-8.422,7.271-17.729,7.409-27.397
		c0.258-17.978,0.075-35.962,0.076-53.944c0-0.861,0.04-1.724-0.001-2.583c-0.065-1.39,0.602-1.923,1.944-1.891
		c1.829,0.043,3.66,0.03,5.49-0.002c3.194-0.057,3.517-0.546,2.194-3.336c-0.829-1.75-1.715-3.474-2.566-5.214
		c-2.646-5.408-5.409-10.761-7.713-16.33c-0.874-0.85-1.229-2.003-1.746-3.052C413.624,140.115,411.15,134.996,408.653,129.887z
		 M314.689,134.652c-2.032-0.031-4.064-0.006-6.656-0.006c6.87-14.009,13.43-27.388,20.273-41.344
		c6.865,14.021,13.415,27.396,20.105,41.06c-2.277,0.489-4.188,0.235-6.073,0.274c-3.053,0.063-3.054,0.037-3.054,2.938
		c0.001,20.565,0.007,41.13-0.01,61.695c-0.002,1.153,0.254,2.345-0.37,3.719c-2.304-0.656-4.12-2.231-6.126-3.365
		c-4.13-2.333-8.337-4.524-12.752-6.212c-2.209-0.845-2.877-1.987-2.854-4.265c0.109-10.551,0.048-21.103,0.048-31.654
		c0.001-6.784,0.015-13.567,0-20.35C317.217,134.71,317.187,134.69,314.689,134.652z M238.292,170.262
		c-2.148-0.049-4.296-0.061-6.444-0.116c-0.167-0.004-0.328-0.217-0.852-0.589c6.52-13.3,13.07-26.665,19.901-40.603
		c6.807,13.901,13.347,27.258,20.056,40.96c-2.487,0.583-4.604,0.291-6.685,0.33c-3.389,0.064-3.388,0.03-3.386,3.276
		c0.002,3.98,0.027,7.96-0.014,11.939c-0.011,1.032,0.444,2.31-0.586,3.02c-1.409,0.972-3.091,1.954-4.767,1.576
		c-4.301-0.969-8.661-1.539-12.998-2.25c-1.395-0.229-1.778-0.821-1.767-2.097c0.038-4.302,0.023-8.604,0.012-12.906
		C240.756,170.33,240.742,170.318,238.292,170.262z M307.225,276.531c-4.918,1.6-9.906,2.854-15.048,3.548
		c-12.883,1.739-23.952-2.381-33.896-10.269c-1.687-1.338-3.347-2.71-5.012-4.075c-8.294-6.795-12.05-15.816-12.44-26.28
		c-0.272-7.303-0.053-14.624-0.053-22.495c3.256,1.325,5.855,2.482,7.752,4.825c3.794,4.687,7.694,9.282,12.043,13.47
		c1.148,1.106,1.58,2.532,2.078,3.952c1.624,4.633,3.933,8.835,7.554,12.245c2.648,2.494,5.688,4.349,9.244,5.013
		c1.806,0.337,2.796,1.199,3.745,2.616c2.378,3.551,5.193,6.568,9.693,7.457c3.889,0.767,5.626-0.2,6.627-4.012
		c0.11-0.417,0.14-0.842,0.6-1.24c2.219,0.614,4.179,1.96,6.282,2.982c0.7,0.34,1.103,0.976,1.154,1.818
		c0.157,2.586,0.601,5.14,1.331,7.613C309.382,275.402,308.652,276.067,307.225,276.531z M253.384,224.051
		c0.07-0.05,0.147-0.145,0.21-0.137c0.063,0.009,0.113,0.121,0.168,0.187c-0.071,0.05-0.148,0.145-0.211,0.136
		C253.489,224.229,253.439,224.117,253.384,224.051z M307.404,259.915c0.011,0.531-0.07,1.064-0.119,1.746
		c-2.577,0.029-4.426-1.651-6.497-2.586c-2.934-1.325-5.825-2.761-8.823-3.929c-8.966-3.493-16.592-9.041-23.684-15.382
		c-4.334-3.875-8.383-8.053-12.309-12.347c-0.713-0.78-1.407-1.56-1.816-3.465c6.027,3.367,11.362,6.344,16.693,9.327
		c10.42,5.829,20.867,11.613,31.249,17.51C308.681,254.527,307.257,252.842,307.404,259.915z M297.054,263.062
		c-0.414,1.507-1.559,1.524-2.792,1.53c-1.932,0.01-3.581-0.796-5.005-1.93c-2.893-2.304-5.057-5.187-6.623-9.417
		c4.837,2.139,9.037,3.936,13.176,5.863C297.115,259.716,297.498,261.449,297.054,263.062z M280.363,254.249
		c-5.349,0.568-13.492-6.903-14.708-13.417c0.868-0.136,1.343,0.513,1.864,0.983c3.269,2.951,6.68,5.723,10.359,8.145
		C279.46,251,280.034,252.515,280.363,254.249z M338.451,413.484c-0.003,3.463-0.018,3.471-3.597,3.478
		c-4.308,0.009-8.616,0.025-12.923-0.008c-2.692-0.021-2.787-0.061-2.752-2.686c0.182-13.878-0.176-27.756,0.179-41.639
		c0.15-5.878-0.084-11.805-0.185-17.709c-0.018-1.038-0.17-2.114,0.327-3.368c1.515,0.518,2.36,1.369,3.2,2.178
		c3.32,3.195,7.23,5.426,11.554,6.87c1.764,0.59,2.342,1.492,2.839,3.299c1.808,6.563,1.326,13.22,1.352,19.861
		C338.482,393.668,338.459,403.576,338.451,413.484z M406.205,280.546c3.288,8.77,4.979,17.804,4.257,27.178
		c-0.323,4.181-1.167,8.316-2.947,12.156c-3.632,7.832-7.834,15.356-13.182,22.149c-4.533,5.76-10.766,9.147-17.542,11.615
		c-2.525,0.92-5.055,1.831-7.598,2.701c-1.598,0.547-2.665,1.554-3.634,2.976c-5.335,7.828-9.489,16.402-15.22,23.976
		c-0.647,0.855-1.193,1.792-2.239,2.509c-0.271-0.203-0.406-0.254-0.414-0.319c-0.716-6.177-3.978-11.286-6.948-16.509
		c-0.865-1.522-1.373-3.16-1.682-4.84s0.179-2.16,1.884-1.899c2.397,0.366,4.721,0.179,7.016-0.542
		c0.601-0.189,1.409-0.333,1.317-1.15c-0.119-1.055-1.075-0.952-1.775-0.841c-2.463,0.388-4.885,0.378-7.377,0.063
		c-5.629-0.712-10.671-2.849-14.791-6.596c-4.507-4.1-9.478-7.411-14.703-10.447c-2.379-1.382-4.924-2.628-6.513-5.039
		c0.221-0.265,0.342-0.551,0.489-0.565c3.207-0.315,6.412-0.726,9.628-0.865c5.043-0.218,9.773,1.345,14.428,3.026
		c4.75,1.715,9.412,3.676,14.145,5.44c3.945,1.472,7.99,2.621,12.266,2.225c6.895-0.64,12.086-4.193,16.015-9.721
		c5.072-7.138,6.539-15.019,4.947-23.607c-1.066-5.75-2.621-11.301-5.374-16.48c-4.001-7.525-10.169-12.993-16.972-17.857
		c-7.626-5.452-15.711-10.178-23.72-15.027c-0.884-0.535-2.46-0.866-2.227-2.02c0.279-1.383,1.886-1.59,3.173-1.669
		c2.256-0.14,4.517-0.175,6.749,0.358c1.043,0.249,2.111,0.399,3.17,0.585c0.361,0.063,0.627-0.128,0.781-0.42
		c0.251-0.475,0.008-0.862-0.388-1.068c-0.472-0.247-0.99-0.45-1.513-0.545c-2.433-0.443-4.861-0.892-7.361-0.828
		c-5.421,0.141-8.878,3.269-9.272,8.729c-0.194,2.676-0.008,5.379-0.005,8.07c0.001,1.4-0.014,2.799-0.374,4.171
		c-0.83,3.167-2.235,3.838-5.19,2.266c-3.051-1.624-5.269-4.064-6.457-7.35c-1.181-3.269-1.624-6.664-1.756-10.129
		c-0.156-4.081,0.258-8.174-0.443-12.247c-1.085-6.314-3.934-11.794-7.701-16.867c-0.253-0.341-0.552-0.683-0.905-0.902
		c-0.223-0.139-0.673-0.169-0.864-0.03c-0.196,0.142-0.357,0.625-0.26,0.824c0.326,0.669,0.75,1.296,1.182,1.907
		c2.185,3.092,4.048,6.355,5.338,9.926c0.356,0.987,0.954,1.947,0.437,3.046c-0.898,0.354-1.445-0.308-2.064-0.654
		c-18.216-10.197-36.387-20.478-54.654-30.583c-8.289-4.585-16.66-9.019-24.888-13.716c-1.512-0.863-2.917-1.795-3.781-3.396
		c-0.728-1.349-0.927-2.618,0.082-3.908c0.995-1.274,2.324-1.594,3.757-1.089c2.738,0.963,5.498,1.909,8.128,3.122
		c6.94,3.202,13.746,6.681,20.454,10.35c0.946,0.518,2.295,1.97,3.053,0.736c0.98-1.595-1.103-1.986-2.072-2.53
		c-8.443-4.737-16.96-9.34-26.044-12.769c-1.299-0.491-2.671-0.794-4.018-1.152c-1.088-0.29-2.055-0.64-2.157-2.012
		c-0.104-1.392,0.566-2.295,1.767-2.762c1.093-0.425,2.251-0.911,3.393-0.942c2.892-0.081,5.77-0.067,8.682,0.366
		c4.458,0.665,8.907,1.515,13.379,1.956c5.056,0.499,9.577,2.403,14.108,4.341c11.879,5.08,23.374,10.97,34.902,16.787
		c2.537,1.28,4.214,0.539,4.924-2.197c0.279-1.075,0.25-2.138-0.117-3.18c-1.416-4.027-8.148-6.852-11.547-4.334
		c-2.917,2.16-5.065,1.545-7.842,0.092c-7.052-3.689-14.317-6.954-21.622-10.121c-0.531-0.23-1.332-0.188-1.517-1.286
		c2.823-1.416,5.947-1.924,9.057-2.476c6.929-1.228,13.898-1.392,20.897-0.785c7.422,0.643,14.64,2.269,21.671,4.675
		c9.614,3.292,18.554,7.944,27.081,13.471c12.74,8.257,25.731,16.085,39.639,22.279c4.835,2.153,9.316,4.92,13.481,8.197
		c3.067,2.413,4.92,5.635,6.343,9.184c0.523,1.305-0.023,1.63-1.191,1.956c-2.878,0.801-3.19,1.386-3.345,4.265
		c-0.12,2.232,0.469,4.195,1.497,6.162C399.359,265.453,403.285,272.76,406.205,280.546z M319.153,286.892
		c-0.001-1.366-0.045-2.482,1.906-2.561c1.879-0.076,2.586-1.703,3.131-3.276c0.675-1.949,0.662-4.009,0.833-6.46
		c3.701,1.39,6.33,3.705,9.39,5.169c3.268,1.563,4.179,3.79,4.133,7.367c-0.209,16.558-0.09,33.12-0.094,49.68
		c-0.001,3.878-0.013,3.886-3.615,2.519c-4.415-1.676-8.779-3.522-13.436-4.439c-1.872-0.369-2.285-1.372-2.277-3.158
		C319.19,316.785,319.167,301.838,319.153,286.892z M340.335,287.414c0.002-1.028-0.314-2.123,0.444-3.307
		c2.973,1.543,5.594,3.562,7.975,5.813c6.517,6.165,12.127,13.062,16.648,20.854c3.337,5.751,5.313,11.938,6.605,18.394
		c0.193,0.966,0.17,1.921-0.3,2.832c-3.014,5.85-7.087,10.528-13.74,12.29c-4.314,1.143-8.547,0.564-12.646-0.958
		c-5.88-2.185-4.973-0.902-4.988-6.834C340.288,320.138,340.311,303.775,340.335,287.414z M370.993,317.76
		c-3.171-7.992-7.957-14.93-13.364-21.569c-7.228-8.875-16.594-14.9-26.21-20.669c-1.661-0.997-3.376-1.906-5.004-2.952
		c-1.716-1.103-2.214-6.16-0.819-7.583c0.65-0.664,1.172-0.12,1.69,0.191c4.519,2.714,9.061,5.393,13.539,8.175
		c5.847,3.634,11.609,7.375,16.965,11.749c7.791,6.362,12.809,14.335,15.197,24.093c0.771,3.154,1.063,6.354,1.598,9.528
		c0.381,2.257-0.172,4.48-1.01,6.659C372.555,322.823,371.974,320.231,370.993,317.76z M426.908,171.303
		c-2.947,0-5.255-0.02-7.563,0.005c-2.655,0.028-2.676,0.045-2.679,2.641c-0.009,7.75,0.001,15.5,0.001,23.249
		c0.001,11.086-0.003,22.173,0.001,33.26c0.003,7.846-1.567,15.388-4.574,22.61c-1.749,4.204-4.049,8.094-7.762,10.929
		c-2.254,1.721-2.362,1.667-3.717-0.911c-1.051-2-2.163-3.968-3.181-5.983c-0.53-1.052-1.04-2.145-1.342-3.276
		c-0.743-2.791,0.196-3.986,3.113-4.167c2.984-0.185,3.182-0.415,1.982-3.269c-1.454-3.461-2.778-7.03-5.653-9.663
		c-0.921-0.844-1.106-1.805-0.676-2.915c1.759-4.523,1.711-9.248,1.697-13.995c-0.043-15.175-0.015-30.351-0.015-45.527
		c0-2.955-0.003-2.958-2.99-2.983c-1.292-0.011-2.584,0.008-3.875-0.004c-3.339-0.031-3.371-0.08-1.857-3.211
		c1.873-3.875,3.749-7.748,5.646-11.61c3.89-7.918,7.787-15.832,11.702-23.737c0.369-0.743,0.536-1.669,1.765-2.14
		C413.481,143.945,420.038,157.304,426.908,171.303z"/>
	<path fill="#FFFFFE" d="M360.59,216.723c2.176,1.176,4.344,2.367,6.494,3.588c5.989,3.399,12.565,5.622,18.457,9.212
		c1.741,1.062,3.441,2.19,5.183,3.254c1.948,1.191,2.215,1.089,2.856-1.017c0.722-2.374,1.159-4.773,1.148-7.287
		c-0.052-11.84-0.011-23.68-0.028-35.521c-0.007-4.626-0.08-9.252-0.123-13.878c-0.324,0.281-0.687,0.529-0.968,0.848
		c-11.537,13.089-23.066,26.184-34.595,39.276C359.287,215.966,359.909,216.355,360.59,216.723z"/>
	<path d="M394.021,251.947c0.154-2.879,0.467-3.464,3.345-4.265c1.168-0.326,1.715-0.651,1.191-1.956
		c-1.423-3.548-3.275-6.771-6.343-9.184c-4.165-3.277-8.646-6.044-13.481-8.197c-13.908-6.194-26.899-14.022-39.639-22.279
		c-8.527-5.527-17.467-10.179-27.081-13.471c-7.031-2.407-14.249-4.032-21.671-4.675c-7-0.607-13.968-0.443-20.897,0.785
		c-3.11,0.552-6.234,1.06-9.057,2.476c0.185,1.098,0.985,1.056,1.517,1.286c7.305,3.167,14.57,6.431,21.622,10.121
		c2.777,1.453,4.926,2.068,7.842-0.092c3.399-2.518,10.132,0.307,11.547,4.334c0.366,1.042,0.396,2.105,0.117,3.18
		c-0.709,2.736-2.387,3.477-4.924,2.197c-11.528-5.816-23.023-11.707-34.902-16.787c-4.532-1.938-9.053-3.842-14.108-4.341
		c-4.473-0.441-8.921-1.292-13.379-1.956c-2.912-0.434-5.79-0.447-8.682-0.366c-1.142,0.032-2.299,0.517-3.393,0.942
		c-1.201,0.467-1.872,1.371-1.767,2.762c0.103,1.372,1.069,1.722,2.157,2.012c1.346,0.358,2.718,0.662,4.018,1.152
		c9.084,3.429,17.601,8.032,26.044,12.769c0.969,0.543,3.052,0.935,2.072,2.53c-0.758,1.234-2.107-0.218-3.053-0.736
		c-6.708-3.669-13.514-7.147-20.454-10.35c-2.63-1.213-5.39-2.159-8.128-3.122c-1.433-0.505-2.762-0.185-3.757,1.089
		c-1.009,1.29-0.809,2.559-0.082,3.908c0.864,1.601,2.269,2.533,3.781,3.396c8.228,4.697,16.599,9.131,24.888,13.716
		c18.267,10.104,36.438,20.385,54.654,30.583c0.619,0.346,1.166,1.009,2.064,0.654c0.517-1.099-0.081-2.059-0.437-3.046
		c-1.29-3.571-3.153-6.834-5.338-9.926c-0.432-0.61-0.855-1.238-1.182-1.907c-0.098-0.199,0.064-0.682,0.26-0.824
		c0.191-0.139,0.641-0.108,0.864,0.03c0.353,0.219,0.651,0.562,0.905,0.902c3.767,5.073,6.615,10.552,7.701,16.867
		c0.701,4.072,0.287,8.166,0.443,12.247c0.133,3.466,0.575,6.86,1.756,10.129c1.188,3.286,3.406,5.726,6.457,7.35
		c2.955,1.572,4.36,0.901,5.19-2.266c0.359-1.372,0.375-2.771,0.374-4.171c-0.003-2.691-0.189-5.394,0.005-8.07
		c0.395-5.46,3.851-8.588,9.272-8.729c2.5-0.064,4.928,0.385,7.361,0.828c0.522,0.095,1.041,0.299,1.513,0.545
		c0.396,0.206,0.639,0.593,0.388,1.068c-0.154,0.292-0.42,0.483-0.781,0.42c-1.059-0.186-2.126-0.336-3.17-0.585
		c-2.232-0.534-4.493-0.498-6.749-0.358c-1.288,0.079-2.895,0.286-3.173,1.669c-0.233,1.154,1.343,1.485,2.227,2.02
		c8.008,4.849,16.094,9.575,23.72,15.027c6.803,4.864,12.971,10.332,16.972,17.857c2.753,5.179,4.308,10.73,5.374,16.48
		c1.592,8.588,0.125,16.469-4.947,23.607c-3.929,5.527-9.12,9.081-16.015,9.721c-4.275,0.396-8.32-0.753-12.266-2.225
		c-4.733-1.765-9.395-3.726-14.145-5.44c-4.655-1.682-9.385-3.244-14.428-3.026c-3.216,0.14-6.421,0.55-9.628,0.865
		c-0.147,0.015-0.268,0.301-0.489,0.565c1.588,2.411,4.134,3.657,6.513,5.039c5.225,3.036,10.195,6.348,14.703,10.447
		c4.12,3.747,9.162,5.884,14.791,6.596c2.492,0.314,4.914,0.324,7.377-0.063c0.7-0.111,1.656-0.214,1.775,0.841
		c0.092,0.817-0.717,0.961-1.317,1.15c-2.295,0.721-4.618,0.908-7.016,0.542c-1.705-0.261-2.193,0.22-1.884,1.899
		s0.817,3.317,1.682,4.84c2.971,5.223,6.232,10.332,6.948,16.509c0.008,0.065,0.144,0.116,0.414,0.319
		c1.046-0.717,1.592-1.653,2.239-2.509c5.73-7.573,9.885-16.147,15.22-23.976c0.969-1.422,2.036-2.429,3.634-2.976
		c2.543-0.87,5.072-1.781,7.598-2.701c6.776-2.468,13.009-5.855,17.542-11.615c5.348-6.793,9.55-14.317,13.182-22.149
		c1.78-3.84,2.624-7.975,2.947-12.156c0.723-9.374-0.969-18.408-4.257-27.178c-2.92-7.786-6.846-15.093-10.687-22.437
		C394.49,256.142,393.901,254.18,394.021,251.947z"/>
	<path fill="#FFFF01" d="M405.169,132.744c-3.915,7.905-7.813,15.819-11.702,23.737c-1.897,3.863-3.773,7.736-5.646,11.61
		c-1.514,3.131-1.481,3.181,1.857,3.211c1.291,0.012,2.583-0.006,3.875,0.004c2.987,0.025,2.99,0.029,2.99,2.983
		c0,15.176-0.028,30.352,0.015,45.527c0.014,4.747,0.062,9.472-1.697,13.995c-0.431,1.11-0.245,2.07,0.676,2.915
		c2.875,2.633,4.199,6.202,5.653,9.663c1.199,2.854,1.002,3.084-1.982,3.269c-2.917,0.181-3.856,1.376-3.113,4.167
		c0.302,1.132,0.812,2.224,1.342,3.276c1.018,2.016,2.13,3.984,3.181,5.983c1.354,2.578,1.463,2.632,3.717,0.911
		c3.713-2.835,6.013-6.726,7.762-10.929c3.007-7.222,4.577-14.764,4.574-22.61c-0.004-11.087,0-22.173-0.001-33.26
		c0-7.75-0.01-15.499-0.001-23.249c0.003-2.596,0.023-2.613,2.679-2.641c2.308-0.025,4.615-0.005,7.563-0.005
		c-6.87-14-13.427-27.358-19.975-40.699C405.705,131.075,405.538,132.001,405.169,132.744z"/>
	<path fill="#FFFF01" d="M317.222,137.141c0.015,6.783,0.001,13.566,0,20.35c0,10.551,0.061,21.104-0.048,31.654
		c-0.023,2.278,0.645,3.42,2.854,4.265c4.415,1.688,8.622,3.879,12.752,6.212c2.006,1.133,3.822,2.709,6.126,3.365
		c0.624-1.374,0.368-2.566,0.37-3.719c0.017-20.565,0.011-41.13,0.01-61.695c0-2.902,0.001-2.876,3.054-2.938
		c1.885-0.039,3.796,0.215,6.073-0.274c-6.69-13.664-13.24-27.04-20.105-41.06c-6.843,13.956-13.404,27.335-20.273,41.344
		c2.591,0,4.624-0.025,6.656,0.006C317.187,134.69,317.217,134.71,317.222,137.141z"/>
	<path fill="#FFFF01" d="M307.548,266.086c-0.051-0.842-0.454-1.478-1.154-1.818c-2.103-1.022-4.063-2.368-6.282-2.982
		c-0.46,0.398-0.49,0.823-0.6,1.24c-1.001,3.812-2.739,4.779-6.627,4.012c-4.5-0.888-7.315-3.906-9.693-7.457
		c-0.948-1.417-1.939-2.279-3.745-2.616c-3.556-0.664-6.596-2.519-9.244-5.013c-3.621-3.41-5.93-7.612-7.554-12.245
		c-0.498-1.419-0.93-2.846-2.078-3.952c-4.349-4.188-8.25-8.783-12.043-13.47c-1.896-2.343-4.496-3.5-7.752-4.825
		c0,7.871-0.219,15.192,0.053,22.495c0.39,10.464,4.146,19.485,12.44,26.28c1.666,1.365,3.325,2.737,5.012,4.075
		c9.944,7.887,21.014,12.007,33.896,10.269c5.142-0.694,10.129-1.949,15.048-3.548c1.427-0.464,2.157-1.129,1.654-2.833
		C308.148,271.226,307.705,268.672,307.548,266.086z"/>
	<path fill="#FFFFFE" d="M345.322,343.333c4.099,1.522,8.331,2.101,12.646,0.958c6.653-1.762,10.727-6.44,13.74-12.29
		c0.47-0.911,0.493-1.866,0.3-2.832c-1.293-6.456-3.269-12.643-6.605-18.394c-4.521-7.792-10.132-14.69-16.648-20.854
		c-2.381-2.252-5.002-4.271-7.975-5.813c-0.759,1.185-0.442,2.279-0.444,3.307c-0.024,16.361-0.047,32.724-0.001,49.085
		C340.35,342.431,339.442,341.148,345.322,343.333z"/>
	<path fill="#FFFF01" d="M240.763,172.804c0.011,4.302,0.025,8.604-0.012,12.906c-0.012,1.276,0.372,1.869,1.767,2.097
		c4.337,0.711,8.697,1.281,12.998,2.25c1.676,0.378,3.358-0.604,4.767-1.576c1.03-0.71,0.576-1.988,0.586-3.02
		c0.041-3.979,0.016-7.959,0.014-11.939c-0.002-3.247-0.002-3.212,3.386-3.276c2.08-0.039,4.198,0.253,6.685-0.33
		c-6.709-13.702-13.25-27.059-20.056-40.96c-6.832,13.938-13.382,27.302-19.901,40.603c0.524,0.372,0.686,0.584,0.852,0.589
		c2.148,0.055,4.296,0.066,6.444,0.116C240.742,170.318,240.756,170.33,240.763,172.804z"/>
	<path fill="#FFFF01" d="M337.092,363.899c-0.497-1.807-1.075-2.709-2.839-3.299c-4.324-1.444-8.234-3.675-11.554-6.87
		c-0.84-0.809-1.685-1.66-3.2-2.178c-0.497,1.254-0.344,2.33-0.327,3.368c0.1,5.904,0.335,11.831,0.185,17.709
		c-0.354,13.883,0.003,27.761-0.179,41.639c-0.034,2.625,0.061,2.665,2.752,2.686c4.307,0.033,8.615,0.017,12.923,0.008
		c3.579-0.007,3.594-0.015,3.597-3.478c0.008-9.908,0.032-19.816-0.007-29.724C338.418,377.119,338.899,370.463,337.092,363.899z"/>
	<path fill="#FFFF01" d="M321.401,334.89c4.657,0.917,9.021,2.764,13.436,4.439c3.602,1.367,3.614,1.359,3.615-2.519
		c0.004-16.56-0.115-33.122,0.094-49.68c0.045-3.577-0.866-5.804-4.133-7.367c-3.06-1.464-5.688-3.779-9.39-5.169
		c-0.171,2.452-0.158,4.512-0.833,6.46c-0.545,1.573-1.252,3.2-3.131,3.276c-1.952,0.079-1.907,1.194-1.906,2.561
		c0.014,14.947,0.038,29.893-0.029,44.84C319.116,333.518,319.529,334.521,321.401,334.89z"/>
	<path fill="#BFBFBF" d="M374.584,318.723c-0.535-3.174-0.826-6.375-1.598-9.528c-2.389-9.758-7.406-17.731-15.197-24.093
		c-5.355-4.374-11.118-8.115-16.965-11.749c-4.478-2.783-9.02-5.461-13.539-8.175c-0.519-0.311-1.04-0.854-1.69-0.191
		c-1.396,1.424-0.897,6.48,0.819,7.583c1.628,1.046,3.344,1.956,5.004,2.952c9.617,5.769,18.983,11.794,26.21,20.669
		c5.407,6.639,10.193,13.577,13.364,21.569c0.98,2.472,1.562,5.063,2.581,7.622C374.412,323.203,374.965,320.98,374.584,318.723z"/>
	<path fill="#BFBFBF" d="M302.098,250.788c-10.382-5.896-20.829-11.681-31.249-17.51c-5.331-2.983-10.666-5.96-16.693-9.327
		c0.41,1.905,1.103,2.685,1.816,3.465c3.925,4.293,7.975,8.472,12.309,12.347c7.092,6.341,14.718,11.889,23.684,15.382
		c2.998,1.167,5.889,2.604,8.823,3.929c2.071,0.935,3.92,2.615,6.497,2.586c0.049-0.682,0.13-1.214,0.119-1.746
		C307.257,252.842,308.681,254.527,302.098,250.788z"/>
	<path d="M282.633,253.245c1.566,4.23,3.73,7.113,6.623,9.417c1.425,1.134,3.073,1.94,5.005,1.93
		c1.233-0.006,2.378-0.023,2.792-1.53c0.444-1.613,0.061-3.346-1.245-3.954C291.67,257.181,287.47,255.384,282.633,253.245z"/>
	<path fill="#0000CC" d="M267.52,241.815c-0.521-0.471-0.996-1.119-1.864-0.983c1.216,6.514,9.359,13.985,14.708,13.417
		c-0.33-1.734-0.903-3.249-2.484-4.289C274.199,247.538,270.788,244.766,267.52,241.815z"/>
	<path fill="#FFFF01" d="M253.763,224.101c-0.056-0.066-0.105-0.178-0.168-0.187c-0.063-0.008-0.14,0.087-0.21,0.137
		c0.055,0.066,0.105,0.178,0.168,0.186C253.615,224.245,253.692,224.15,253.763,224.101z"/>
</g>
</svg>
